<?xml version="1.0" standalone="no"?>
<!DOCTYPE svg PUBLIC "-//W3C//DTD SVG 1.1//EN" "http://www.w3.org/Graphics/SVG/1.1/DTD/svg11.dtd" >
<svg xmlns="http://www.w3.org/2000/svg" xmlns:xlink="http://www.w3.org/1999/xlink" version="1.1">
<metadata>
Created by FontForge 20170731 at Wed Apr 16 13:55:48 2014
 By Aleksey,,,
Copyright (c) 2014 by Olivier Nineuil. All rights reserved.
</metadata>
<defs>
<font id="ExcellenceInMotion-Bold" horiz-adv-x="744" >
  <font-face 
    font-family="ExcellenceInMotion"
    font-weight="700"
    font-stretch="normal"
    units-per-em="1000"
    panose-1="2 0 8 6 3 0 0 2 0 4"
    ascent="800"
    descent="-200"
    x-height="425"
    cap-height="600"
    bbox="-86 -222 1065 924"
    underline-thickness="50"
    underline-position="-150"
    unicode-range="U+0020-FB04"
  />
<missing-glyph horiz-adv-x="438" 
d="M0 7v620h444v-620h-444zM222 352l158 238h-316zM246 317l159 -240v478zM64 44h316l-158 237zM39 555v-477l159 239z" />
    <glyph glyph-name="f_f" unicode="ff" horiz-adv-x="655" 
d="M234 320v-320h-132v320h-78v105h78v38q0 82 52 133t133 51q36 0 59 -10v-102q-18 7 -44 7q-30 0 -49 -19t-19 -53v-45h132v32q0 83 58.5 136.5t146.5 53.5q49 0 92 -17v-103q-31 15 -70 15q-42 0 -68.5 -24.5t-26.5 -64.5v-28h138v-105h-138v-320h-132v320h-132z" />
    <glyph glyph-name="fi" unicode="fi" horiz-adv-x="562" 
d="M512 0h-132v320h-146v-320h-132v320h-78v105h78v38q0 82 52 133t133 51q36 0 59 -10v-102q-18 7 -44 7q-30 0 -49 -19t-19 -53v-45h278v-425zM527 580q0 -35 -22 -56.5t-54 -21.5q-34 0 -56 21.5t-22 56.5q0 31 22.5 52t55.5 21q32 0 54 -21t22 -52z" />
    <glyph glyph-name="fl" unicode="fl" horiz-adv-x="603" 
d="M25 320v105h78v32q0 85 53 137.5t141 52.5q40 0 66 -13v-102q-21 10 -51 10q-34 0 -55.5 -21.5t-21.5 -56.5v-39h138v-105h-138v-320h-132v320h-78zM557 0h-132v647h132v-647z" />
    <glyph glyph-name="f_f_i" unicode="ffi" horiz-adv-x="823" 
d="M774 0h-132v320h-146v-320h-132v320h-130v-320h-132v320h-78v105h78v38q0 82 52 133t133 51q36 0 59 -10v-102q-18 7 -44 7q-30 0 -49 -19t-19 -53v-45h130v38q0 82 52 133t133 51q36 0 59 -10v-102q-18 7 -44 7q-30 0 -49 -19t-19 -53v-45h278v-425zM786 580
q0 -35 -22 -56.5t-54 -21.5q-34 0 -56 21.5t-22 56.5q0 31 22.5 52t55.5 21q32 0 54 -21t22 -52z" />
    <glyph glyph-name="f_f_l" unicode="ffl" horiz-adv-x="851" 
d="M628 425v-105h-132v-320h-132v320h-130v-320h-132v320h-78v105h78v38q0 82 52 133t133 51q36 0 59 -10v-102q-18 7 -44 7q-30 0 -49 -19t-19 -53v-45h130v38q0 82 52 133t133 51q36 0 59 -10v-102q-18 7 -44 7q-30 0 -49 -19t-19 -53v-45h132zM800 0h-132v647h132v-647z
" />
    <glyph glyph-name=".notdef" horiz-adv-x="438" 
d="M0 7v620h444v-620h-444zM222 352l158 238h-316zM246 317l159 -240v478zM64 44h316l-158 237zM39 555v-477l159 239z" />
    <glyph glyph-name=".null" horiz-adv-x="0" 
 />
    <glyph glyph-name="nonmarkingreturn" horiz-adv-x="333" 
 />
    <glyph glyph-name="space" unicode=" " horiz-adv-x="264" 
 />
    <glyph glyph-name="exclam" unicode="!" horiz-adv-x="275" 
d="M217 65q0 -35 -22 -56.5t-54 -21.5q-34 0 -56 21.5t-22 56.5q0 31 22.5 52t55.5 21q32 0 54 -21t22 -52zM200 193h-119l-7 407h133z" />
    <glyph glyph-name="quotedbl" unicode="&#x22;" horiz-adv-x="434" 
d="M28 379l104 268h127l-106 -268h-125zM204 379l104 268h127l-106 -268h-125z" />
    <glyph glyph-name="numbersign" unicode="#" horiz-adv-x="727" 
d="M512 636h120l-43 -154h87v-106h-118l-32 -114h150v-105h-180l-44 -157h-122l44 157h-107l-44 -157h-122l44 157h-90v105h120l33 114h-153v106h183l45 154h120l-44 -154h108zM329 376l-32 -114h108l32 114h-108z" />
    <glyph glyph-name="dollar" unicode="$" horiz-adv-x="576" 
d="M323 220l-130 56q-132 57 -132 164q0 61 44.5 106t119.5 60v84h124v-81q81 -13 153 -67l-66 -92q-68 49 -139 49q-44 0 -68 -15.5t-24 -39.5q0 -22 14 -35t42 -25l128 -54q134 -57 134 -165q0 -64 -47.5 -111t-126.5 -61v-107h-124v107q-95 16 -171 77l65 102
q34 -29 79.5 -48.5t84.5 -19.5q43 0 67.5 15.5t24.5 41.5q0 37 -52 59z" />
    <glyph glyph-name="percent" unicode="%" horiz-adv-x="805" 
d="M74 0l518 636h152l-516 -636h-154zM370 511q0 -57 -41.5 -97.5t-100.5 -40.5t-101.5 40.5t-42.5 97.5t42 96.5t102 39.5q59 0 100.5 -39.5t41.5 -96.5zM279 511q0 21 -15 36.5t-37 15.5t-37.5 -15.5t-15.5 -36.5q0 -23 15.5 -38.5t37.5 -15.5t37 15.5t15 38.5zM725 129
q0 -57 -41.5 -97.5t-100.5 -40.5t-101.5 40.5t-42.5 97.5t42 96.5t102 39.5q59 0 100.5 -39.5t41.5 -96.5zM634 129q0 21 -15 36.5t-37 15.5t-37.5 -15.5t-15.5 -36.5q0 -23 15.5 -38.5t37.5 -15.5t37 15.5t15 38.5z" />
    <glyph glyph-name="ampersand" unicode="&#x26;" horiz-adv-x="644" 
d="M491 252l83 -66q-17 -26 -50 -61l109 -113v-12h-138l-51 53q-77 -66 -185 -66q-93 0 -151.5 44t-58.5 118q0 48 34 88.5t99 88.5q-56 57 -70 80q-18 31 -18 66q0 60 51.5 100.5t125.5 40.5q75 0 123.5 -40t48.5 -101q0 -42 -24.5 -77t-78.5 -78l110 -114q22 22 41 49z
M181 155q0 -29 22.5 -46.5t57.5 -17.5q61 0 108 41l-113 116q-43 -30 -59 -50t-16 -43zM327 474q0 20 -17 35.5t-40 15.5q-27 0 -42.5 -15t-15.5 -36q0 -5 0.5 -9t2.5 -8.5t3.5 -8t5.5 -8.5l6 -7.5t7.5 -8.5t8 -8.5l10 -10l9.5 -9.5q34 26 48 42.5t14 35.5z" />
    <glyph glyph-name="quotesingle" unicode="'" horiz-adv-x="259" 
d="M28 379l104 268h127l-106 -268h-125z" />
    <glyph glyph-name="parenleft" unicode="(" horiz-adv-x="374" 
d="M325 -79h-137q-115 181 -116.5 387t107.5 371h137q-231 -364 9 -758z" />
    <glyph glyph-name="parenright" unicode=")" horiz-adv-x="375" 
d="M191 -79h-137q240 394 9 758h137q109 -165 107.5 -371t-116.5 -387z" />
    <glyph glyph-name="asterisk" unicode="*" horiz-adv-x="378" 
d="M69 594l80 -35l-4 88h88l-3 -89l82 36l31 -80l-88 -31l56 -72l-72 -51l-49 77l-50 -73l-71 49l55 69l-87 31z" />
    <glyph glyph-name="plus" unicode="+" horiz-adv-x="568" 
d="M352 0h-133v176h-161v115h161v166h133v-166h162v-115h-162v-176z" />
    <glyph glyph-name="comma" unicode="," horiz-adv-x="236" 
d="M3 -161l104 268h127l-106 -268h-125z" />
    <glyph glyph-name="hyphen" unicode="-" horiz-adv-x="532" 
d="M439 189h-337v120h337v-120z" />
    <glyph glyph-name="period" unicode="." horiz-adv-x="305" 
d="M232 65q0 -35 -22 -56.5t-54 -21.5q-34 0 -56 21.5t-22 56.5q0 31 22.5 52t55.5 21q32 0 54 -21t22 -52z" />
    <glyph glyph-name="slash" unicode="/" horiz-adv-x="671" 
d="M53 -88l458 784h136l-453 -784h-141z" />
    <glyph glyph-name="zero" unicode="0" horiz-adv-x="612" 
d="M572 303q0 -145 -72 -230.5t-194 -85.5q-120 0 -192 85.5t-72 230.5q0 136 73 223t191 87q120 0 193 -86.5t73 -223.5zM437 302q0 88 -35 138t-96 50q-60 0 -95 -50.5t-35 -137.5q0 -93 35 -142.5t95 -49.5q62 0 96.5 49.5t34.5 142.5z" />
    <glyph glyph-name="one" unicode="1" horiz-adv-x="462" 
d="M389 0h-136v443l-148 -127l-73 89l224 195h133v-600z" />
    <glyph glyph-name="two" unicode="2" horiz-adv-x="519" 
d="M475 0h-417v101l199 194q86 84 86 134q0 33 -24.5 52t-67.5 19q-67 0 -142 -68l-67 88q44 41 101.5 67t116.5 26q100 0 156 -47.5t56 -128.5q0 -29 -10 -57t-33.5 -59.5t-37 -46.5t-44.5 -49l-115 -114h243v-111z" />
    <glyph glyph-name="three" unicode="3" horiz-adv-x="518" 
d="M166 259v102h67q43 0 69 22t26 53q0 30 -24.5 50t-68.5 20q-68 0 -132 -49l-53 88q91 68 194 68q98 0 156 -46.5t58 -118.5q0 -76 -81 -132q40 -19 69.5 -56.5t29.5 -88.5q0 -79 -66 -131.5t-168 -52.5q-117 0 -202 71l56 95q57 -53 140 -53q48 0 77.5 23t29.5 59
q0 35 -29.5 56t-78.5 21h-69z" />
    <glyph glyph-name="four" unicode="4" horiz-adv-x="605" 
d="M94 112l-58 100l284 388h165v-385h84v-103h-84v-112h-121v112h-270zM167 215h197v271z" />
    <glyph glyph-name="five" unicode="5" horiz-adv-x="540" 
d="M252 99q53 0 86 27.5t33 72.5q0 44 -36.5 69.5t-95.5 25.5q-67 0 -118 -24l-54 50l46 280h334v-103h-227l-17 -112q28 8 77 8q93 0 156 -52.5t63 -141.5q0 -94 -67.5 -153t-176.5 -59q-56 0 -112 20.5t-97 54.5l57 95q65 -58 149 -58z" />
    <glyph glyph-name="six" unicode="6" horiz-adv-x="542" 
d="M511 196q0 -91 -65 -150t-168 -59q-46 0 -86.5 15t-75 47.5t-55 91.5t-20.5 139q0 169 71.5 251t191.5 82q102 0 172 -48l-53 -92q-51 32 -111 32q-64 0 -103 -40.5t-42 -116.5q48 51 132 51q96 0 154 -56.5t58 -146.5zM282 295q-44 0 -73 -26.5t-29 -70.5t29.5 -72
t72.5 -28q44 0 73 28t29 71q0 45 -28 71.5t-74 26.5z" />
    <glyph glyph-name="seven" unicode="7" horiz-adv-x="506" 
d="M221 0h-150l245 484h-271v116h418v-107z" />
    <glyph glyph-name="eight" unicode="8" horiz-adv-x="577" 
d="M510 456q0 -52 -28 -85.5t-63 -50.5q44 -17 78 -55.5t34 -94.5q0 -84 -67.5 -133.5t-171.5 -49.5q-100 0 -170 50t-70 133q0 55 33 93.5t74 56.5q-87 50 -87 137q0 66 61.5 111t158.5 45q99 0 158.5 -45t59.5 -112zM291 263q-45 0 -72.5 -26.5t-27.5 -63.5t28.5 -62.5
t71.5 -25.5q45 0 72 25.5t27 62.5q0 38 -26.5 64t-72.5 26zM202 450q0 -33 23.5 -57t65.5 -24t66.5 24.5t24.5 56.5q0 28 -24 50.5t-67 22.5t-66 -22t-23 -51z" />
    <glyph glyph-name="nine" unicode="9" horiz-adv-x="522" 
d="M27 404q0 91 65 150t168 59q46 0 86.5 -15t75 -47.5t55 -91.5t20.5 -139q0 -169 -71.5 -251t-191.5 -82q-102 0 -172 48l53 92q51 -32 111 -32q64 0 103 40.5t42 116.5q-48 -51 -132 -51q-96 0 -154 56.5t-58 146.5zM256 305q44 0 73 26.5t29 70.5t-29.5 72t-72.5 28
q-44 0 -73 -28t-29 -71q0 -45 28 -71.5t74 -26.5z" />
    <glyph glyph-name="colon" unicode=":" horiz-adv-x="305" 
d="M232 65q0 -35 -22 -56.5t-54 -21.5q-34 0 -56 21.5t-22 56.5q0 31 22.5 52t55.5 21q32 0 54 -21t22 -52zM232 361q0 -35 -22 -56.5t-54 -21.5q-34 0 -56 21.5t-22 56.5q0 31 22.5 52t55.5 21q32 0 54 -21t22 -52z" />
    <glyph glyph-name="semicolon" unicode=";" horiz-adv-x="259" 
d="M250 384q0 -35 -22 -56.5t-54 -21.5q-34 0 -56 21.5t-22 56.5q0 31 22.5 52t55.5 21q32 0 54 -21t22 -52zM1 -161l104 268h127l-106 -268h-125z" />
    <glyph glyph-name="less" unicode="&#x3c;" horiz-adv-x="569" 
d="M353 589h172l-344 -293l344 -296h-172l-278 248v99z" />
    <glyph glyph-name="equal" unicode="=" horiz-adv-x="611" 
d="M97 45v114h420v-114h-420zM97 283v114h420v-114h-420z" />
    <glyph glyph-name="greater" unicode="&#x3e;" horiz-adv-x="580" 
d="M58 589h172l278 -242v-99l-278 -248h-172l344 296z" />
    <glyph glyph-name="question" unicode="?" horiz-adv-x="495" 
d="M303 179h-120v31q0 37 12 64.5t42 56.5q8 7 30 27t31 29t18.5 24.5t9.5 29.5q0 62 -83 62q-33 0 -67.5 -19.5t-61.5 -48.5l-72 83q39 41 93.5 68t112.5 27q94 0 151.5 -45.5t57.5 -115.5q0 -24 -7.5 -45t-27.5 -44.5t-31 -34.5t-40 -38q-48 -43 -48 -79v-32zM321 65
q0 -35 -22 -56.5t-55 -21.5t-55 21.5t-22 56.5q0 31 22.5 52t54.5 21t54.5 -21t22.5 -52z" />
    <glyph glyph-name="at" unicode="@" horiz-adv-x="974" 
d="M580 140v61q-38 7 -76 7q-44 0 -69 -15t-25 -42t20.5 -42t52.5 -15q67 0 97 46zM747 20q-76 0 -111 51q-54 -66 -160 -66q-80 0 -132 39t-52 100t53 99.5t146 38.5q50 0 89 -7v8q0 33 -27 54.5t-79 21.5q-74 0 -138 -37v94q68 35 145 35q110 0 165.5 -49t55.5 -129v-106
q0 -51 44 -51q60 0 60 140q0 118 -88 198.5t-225 80.5q-133 0 -222.5 -90.5t-89.5 -227.5q0 -139 100.5 -224t244.5 -85q124 0 225 65l47 -91q-118 -73 -268 -73q-122 0 -225 47.5t-168 141t-65 215.5q0 180 121.5 299.5t300.5 119.5q180 0 299.5 -109t119.5 -266
q0 -119 -49 -178t-117 -59z" />
    <glyph glyph-name="A" unicode="A" horiz-adv-x="779" 
d="M615 0l-69 143h-321l-69 -143h-143l305 600h142l309 -600h-154zM387 475l-111 -227h220z" />
    <glyph glyph-name="B" unicode="B" horiz-adv-x="596" 
d="M357 0h-287v600h267q97 0 155 -42t58 -112q0 -75 -78 -130q96 -48 96 -146q0 -77 -59.5 -123.5t-151.5 -46.5zM334 495h-131v-133h137q31 0 51 20t20 47q0 29 -21 47.5t-56 18.5zM344 262h-141v-157h134q40 0 66 23t26 58q0 34 -23 55t-62 21z" />
    <glyph glyph-name="C" unicode="C" horiz-adv-x="641" 
d="M532 197l95 -82q-100 -128 -262 -128q-142 0 -239 89.5t-97 228.5q0 131 95 219.5t234 88.5q152 0 255 -116l-93 -88q-60 79 -160 79q-81 0 -138.5 -52.5t-57.5 -130.5q0 -86 58.5 -139.5t138.5 -53.5q104 0 171 85z" />
    <glyph glyph-name="D" unicode="D" horiz-adv-x="653" 
d="M282 0h-212v600h211q163 0 252.5 -74t89.5 -217q0 -140 -91.5 -224.5t-249.5 -84.5zM203 115h78q99 0 152 50.5t53 140.5q0 86 -52.5 132.5t-152.5 46.5h-78v-370z" />
    <glyph glyph-name="E" unicode="E" horiz-adv-x="518" 
d="M487 0h-417v600h418v-115h-285v-128h270v-109h-270v-133h284v-115z" />
    <glyph glyph-name="F" unicode="F" horiz-adv-x="498" 
d="M454 216h-251v-216h-133v600h402v-115h-269v-157h251v-112z" />
    <glyph glyph-name="G" unicode="G" horiz-adv-x="677" 
d="M372 109q84 0 130 34v81h-130v103h258v-261q-101 -79 -258 -79q-147 0 -245 88.5t-98 228.5q0 129 96 219t236 90q144 0 251 -99l-91 -89q-63 63 -158 63q-82 0 -137.5 -53t-55.5 -131q0 -87 58.5 -141t143.5 -54z" />
    <glyph glyph-name="H" unicode="H" horiz-adv-x="685" 
d="M623 0h-133v241h-286v-241h-134v600h134v-241h286v241h133v-600z" />
    <glyph glyph-name="I" unicode="I" horiz-adv-x="294" 
d="M216 0h-137v600h137v-600z" />
    <glyph glyph-name="J" unicode="J" horiz-adv-x="418" 
d="M363 600v-421q0 -88 -51 -140t-141 -52q-35 0 -78 11.5t-71 29.5l44 105q40 -26 83 -26q22 0 37 7t23 17t12 29t5 34t1 40v366h136z" />
    <glyph glyph-name="K" unicode="K" horiz-adv-x="632" 
d="M205 600v-252l224 252h172l-253 -280l278 -320h-179l-242 286v-286h-135v600h135z" />
    <glyph glyph-name="L" unicode="L" horiz-adv-x="493" 
d="M468 0h-398v600h133v-485h265v-115z" />
    <glyph glyph-name="M" unicode="M" horiz-adv-x="799" 
d="M732 0h-132v395l-201 -261h-6l-190 261v-395h-133v600h141l191 -263l198 263h132v-600z" />
    <glyph glyph-name="N" unicode="N" horiz-adv-x="715" 
d="M654 0h-127l-326 387v-387h-131v600h124l326 -387v387h134v-600z" />
    <glyph glyph-name="O" unicode="O" horiz-adv-x="703" 
d="M28 302q0 130 95 220.5t228 90.5t228.5 -90.5t95.5 -220.5q0 -131 -95.5 -223t-228.5 -92t-228 92t-95 223zM162 302q0 -82 54.5 -137t134.5 -55q81 0 134 54.5t53 137.5q0 81 -53 134.5t-134 53.5q-80 0 -134.5 -54.5t-54.5 -133.5z" />
    <glyph glyph-name="P" unicode="P" horiz-adv-x="563" 
d="M294 178h-92v-178h-133v600h225q109 0 178.5 -56.5t69.5 -152.5q0 -94 -70.5 -153.5t-177.5 -59.5zM291 487h-89v-197h88q53 0 86.5 27.5t33.5 74.5q0 45 -33 70t-86 25z" />
    <glyph glyph-name="Q" unicode="Q" horiz-adv-x="694" 
d="M25 302q0 130 95 220.5t228 90.5t228.5 -90.5t95.5 -220.5q0 -119 -81 -208l78 -84l-94 -82l-85 91q-69 -32 -142 -32q-133 0 -228 92t-95 223zM159 302q0 -82 54.5 -137t134.5 -55q81 0 134 54.5t53 137.5q0 81 -53 134.5t-134 53.5q-80 0 -134.5 -54.5t-54.5 -133.5z
" />
    <glyph glyph-name="R" unicode="R" horiz-adv-x="626" 
d="M563 413q0 -61 -37.5 -108.5t-102.5 -70.5l198 -234h-167l-173 215h-78v-215h-133v600h251q109 0 175.5 -50t66.5 -137zM320 491h-117v-169h117q44 0 72 24t28 61q0 38 -28 61t-72 23z" />
    <glyph glyph-name="S" unicode="S" horiz-adv-x="541" 
d="M305 220l-130 56q-132 57 -132 164q0 74 64.5 123.5t166.5 49.5q117 0 210 -71l-66 -92q-68 49 -139 49q-44 0 -68 -15.5t-24 -39.5q0 -22 14 -35t42 -25l128 -54q134 -57 134 -165q0 -76 -67 -127t-172 -51q-126 0 -230 83l65 102q34 -29 79.5 -48.5t84.5 -19.5
q43 0 67.5 15.5t24.5 41.5q0 37 -52 59z" />
    <glyph glyph-name="T" unicode="T" horiz-adv-x="510" 
d="M324 0h-132v485h-171v115h474v-115h-171v-485z" />
    <glyph glyph-name="U" unicode="U" horiz-adv-x="660" 
d="M468 254v346h131v-345q0 -129 -72.5 -198.5t-192.5 -69.5q-116 0 -193 69t-77 199v345h133v-346q0 -72 39 -108t98 -36q61 0 97.5 35.5t36.5 108.5z" />
    <glyph glyph-name="V" unicode="V" horiz-adv-x="678" 
d="M157 600l182 -442l187 442h143l-259 -600h-143l-257 600h147z" />
    <glyph glyph-name="W" unicode="W" horiz-adv-x="949" 
d="M757 0h-142l-141 413l-147 -413h-142l-173 600h133l120 -426l147 426h133l147 -426l121 426h125z" />
    <glyph glyph-name="X" unicode="X" horiz-adv-x="640" 
d="M631 0h-160l-147 213l-152 -213h-161l219 304l-204 296h161l137 -204l143 204h147l-207 -293z" />
    <glyph glyph-name="Y" unicode="Y" horiz-adv-x="632" 
d="M385 0h-136v224l-237 376h151l157 -260l160 260h143l-238 -376v-224z" />
    <glyph glyph-name="Z" unicode="Z" horiz-adv-x="564" 
d="M515 0h-467v93l298 390h-289v117h460v-101l-292 -383h290v-116z" />
    <glyph glyph-name="bracketleft" unicode="[" horiz-adv-x="410" 
d="M102 -79v758h239v-112h-123v-535h123v-111h-239z" />
    <glyph glyph-name="backslash" unicode="\" horiz-adv-x="660" 
d="M177 696l458 -784h-141l-453 784h136z" />
    <glyph glyph-name="bracketright" unicode="]" horiz-adv-x="411" 
d="M323 679v-758h-239v112h123v535h-123v111h239z" />
    <glyph glyph-name="asciicircum" unicode="^" horiz-adv-x="531" 
d="M452 334h-105l-78 187l-75 -187h-105l124 306h114q41 -102 125 -306z" />
    <glyph glyph-name="underscore" unicode="_" horiz-adv-x="519" 
d="M485 -145h-449v106h449v-106z" />
    <glyph glyph-name="grave" unicode="`" 
d="M251 647h128l125 -162h-119l-134 157v5z" />
    <glyph glyph-name="a" unicode="a" horiz-adv-x="500" 
d="M455 0h-117v32q-53 -41 -127 -41q-80 0 -129 38t-49 99t56.5 99.5t152.5 38.5q27 0 91 -8v7q0 35 -27 56t-84 21q-80 0 -145 -34v95q67 31 155 31q110 0 166.5 -49t56.5 -129v-256zM333 119v66q-32 6 -76 6q-43 0 -69 -16.5t-26 -42.5t20.5 -41t53.5 -15q67 0 97 43z" />
    <glyph glyph-name="b" unicode="b" horiz-adv-x="556" 
d="M289 434q97 0 166 -61.5t69 -156.5q0 -102 -67.5 -163.5t-154.5 -61.5q-83 0 -134 49v-40h-109v647h131v-234q44 21 99 21zM277 100q47 0 80 30.5t33 85.5q0 50 -33.5 80t-81.5 30t-85 -22v-166q29 -38 87 -38z" />
    <glyph glyph-name="c" unicode="c" horiz-adv-x="472" 
d="M368 160l89 -79q-67 -90 -190 -90q-99 0 -166.5 64.5t-67.5 160.5q0 91 68 154.5t166 63.5q108 0 180 -75l-83 -85q-36 44 -95 44q-44 0 -76.5 -29.5t-32.5 -72.5q0 -48 32 -77.5t77 -29.5q63 0 99 51z" />
    <glyph glyph-name="d" unicode="d" horiz-adv-x="552" 
d="M268 434q55 0 99 -21v234h131v-647h-109v40q-51 -49 -134 -49q-87 0 -154.5 61.5t-67.5 163.5q0 95 69 156.5t166 61.5zM280 100q58 0 87 38v166q-37 22 -85 22t-81.5 -30t-33.5 -80q0 -55 33 -85.5t80 -30.5z" />
    <glyph glyph-name="e" unicode="e" horiz-adv-x="496" 
d="M477 173h-318q8 -39 39 -60.5t77 -21.5q73 0 117 49l67 -77q-75 -72 -184 -72q-106 0 -174 62.5t-68 161.5q0 91 63.5 155t155.5 64q104 0 166.5 -70t58.5 -191zM256 342q-38 0 -64.5 -24.5t-31.5 -60.5h189q-3 37 -27 61t-66 24z" />
    <glyph glyph-name="f" unicode="f" horiz-adv-x="379" 
d="M24 320v105h78v32q0 83 58.5 136.5t146.5 53.5q50 0 92 -17v-103q-31 15 -70 15q-42 0 -68.5 -24.5t-26.5 -64.5v-28h138v-105h-138v-320h-132v320h-78z" />
    <glyph glyph-name="g" unicode="g" horiz-adv-x="549" 
d="M33 221q0 97 75.5 155t184.5 58q107 0 201 -45v-377q0 -96 -65.5 -152t-174.5 -56q-50 0 -103 16t-90 41l41 96q66 -46 146 -46q56 0 87.5 27.5t31.5 74.5v15q-39 -26 -102 -26q-96 0 -164 57.5t-68 161.5zM286 109q50 0 78 27v177q-36 17 -76 17q-52 0 -87.5 -31
t-35.5 -78q0 -53 35.5 -82.5t85.5 -29.5z" />
    <glyph glyph-name="h" unicode="h" horiz-adv-x="558" 
d="M511 0h-132v234q0 40 -22 60.5t-55 20.5q-58 0 -102 -50v-265h-131v647h131v-267q70 54 141 54q77 0 123.5 -43t46.5 -127v-264z" />
    <glyph glyph-name="i" unicode="i" horiz-adv-x="263" 
d="M203 0h-132v425h132v-425zM216 580q0 -35 -22 -56.5t-54 -21.5q-34 0 -56 21.5t-22 56.5q0 31 22.5 52t55.5 21q32 0 54 -21t22 -52z" />
    <glyph glyph-name="j" unicode="j" horiz-adv-x="285" 
d="M225 425v-451q0 -82 -49.5 -131.5t-128.5 -49.5q-72 0 -130 33l38 103q33 -20 67 -20q71 0 71 75v441h132zM237 580q0 -35 -22 -56.5t-54 -21.5q-34 0 -56 21.5t-22 56.5q0 31 22.5 52t55.5 21q32 0 54 -21t22 -52z" />
    <glyph glyph-name="k" unicode="k" horiz-adv-x="530" 
d="M201 647v-364l147 142h167l-189 -182l203 -243h-165l-163 199v-199h-132v647h132z" />
    <glyph glyph-name="l" unicode="l" horiz-adv-x="252" 
d="M198 0h-132v647h132v-647z" />
    <glyph glyph-name="m" unicode="m" horiz-adv-x="803" 
d="M753 0h-132v254q0 32 -16.5 51t-44.5 19q-46 0 -84 -43v-281h-131v257q0 30 -16 48.5t-43 18.5q-23 0 -47 -13t-39 -33v-278h-131v425h121v-50q61 59 135 59q77 0 119 -57q69 57 143 57q73 0 119.5 -44.5t46.5 -126.5v-263z" />
    <glyph glyph-name="n" unicode="n" horiz-adv-x="565" 
d="M508 0h-132v235q0 39 -21 60t-56 21q-28 0 -56 -14t-45 -36v-266h-132v425h124v-51q67 60 149 60q77 0 123 -43t46 -127v-264z" />
    <glyph glyph-name="o" unicode="o" horiz-adv-x="508" 
d="M27 213q0 93 66.5 157t162.5 64t162.5 -64.5t66.5 -156.5t-66.5 -157t-162.5 -65t-162.5 65t-66.5 157zM160 214q0 -46 27 -74.5t69 -28.5t69 28.5t27 74.5q0 45 -27.5 74.5t-68.5 29.5t-68.5 -29.5t-27.5 -74.5z" />
    <glyph glyph-name="p" unicode="p" horiz-adv-x="560" 
d="M294 -9q-55 0 -99 21v-234h-131v647h109v-40q51 49 134 49q87 0 154.5 -61.5t67.5 -163.5q0 -95 -69 -156.5t-166 -61.5zM282 325q-58 0 -87 -38v-166q37 -22 85 -22t81.5 30t33.5 80q0 55 -33 85.5t-80 30.5z" />
    <glyph glyph-name="q" unicode="q" horiz-adv-x="549" 
d="M33 221q0 98 76.5 155.5t185.5 57.5q98 0 200 -42v-614h-127v248q-42 -25 -101 -25q-95 0 -164.5 57.5t-69.5 162.5zM285 108q53 0 79 28v177q-35 16 -74 16q-53 0 -89 -30.5t-36 -77.5q0 -53 35 -83t85 -30z" />
    <glyph glyph-name="r" unicode="r" horiz-adv-x="366" 
d="M186 0h-132v425h117v-60q19 31 53.5 50t71.5 19q32 0 59 -10v-119q-24 9 -58 9q-36 0 -67 -22.5t-44 -56.5v-235z" />
    <glyph glyph-name="s" unicode="s" horiz-adv-x="409" 
d="M216 154l-78 32q-104 43 -104 120q0 54 47 91t127 37q91 0 157 -49l-50 -76q-45 33 -99 33q-57 0 -57 -31q0 -20 38 -36l80 -35q104 -42 104 -120q0 -58 -49 -93.5t-128 -35.5q-99 0 -175 58l46 85q56 -46 122 -46q60 0 60 29q0 12 -9.5 20t-31.5 17z" />
    <glyph glyph-name="t" unicode="t" horiz-adv-x="397" 
d="M23 322v103h73v129h132v-129h153v-103h-153v-132q0 -41 23 -62.5t60 -21.5q38 0 67 13v-112q-38 -16 -86 -16q-94 0 -145 48t-51 133v150h-73z" />
    <glyph glyph-name="u" unicode="u" horiz-adv-x="546" 
d="M54 425h132v-235q0 -39 21 -60t56 -21q28 0 56 14t45 36v266h132v-425h-124v51q-67 -60 -149 -60q-77 0 -123 43t-46 127v264z" />
    <glyph glyph-name="v" unicode="v" horiz-adv-x="527" 
d="M157 425l109 -285l114 285h139l-183 -425h-142l-181 425h144z" />
    <glyph glyph-name="w" unicode="w" horiz-adv-x="753" 
d="M600 0h-129l-95 266l-95 -266h-135l-136 425h136l77 -277l92 277h124l91 -277l81 277h130z" />
    <glyph glyph-name="x" unicode="x" horiz-adv-x="533" 
d="M525 0h-159l-97 140l-98 -140h-160l165 222l-148 203h161q7 -10 35.5 -53t44.5 -66l84 119h147l-147 -201q15 -19 76.5 -100t95.5 -124z" />
    <glyph glyph-name="y" unicode="y" horiz-adv-x="540" 
d="M159 425l115 -243l118 243h140q-53 -106 -329 -647h-141l141 270l-191 377h147z" />
    <glyph glyph-name="z" unicode="z" horiz-adv-x="445" 
d="M407 0h-372v78l204 246h-194v101h359v-88l-200 -235h203v-102z" />
    <glyph glyph-name="braceleft" unicode="{" horiz-adv-x="433" 
d="M61 258h-18v90h18q64 0 64 64v115q0 71 41.5 113t125.5 42h70v-97h-41q-79 0 -79 -82v-113q0 -69 -57 -88q31 -10 44 -31t13 -56v-107q0 -88 83 -88h37v-97h-65q-83 0 -127.5 43.5t-44.5 115.5v115q0 27 -18 44t-46 17z" />
    <glyph glyph-name="bar" unicode="|" horiz-adv-x="292" 
d="M217 -114h-135v804h135v-804z" />
    <glyph glyph-name="braceright" unicode="}" horiz-adv-x="433" 
d="M381 347h18v-90h-18q-64 0 -64 -64v-115q0 -71 -41.5 -113t-125.5 -42h-70v97h41q79 0 79 82v113q0 69 57 88q-31 10 -44 31t-13 56v107q0 88 -83 88h-37v97h65q83 0 127.5 -43.5t44.5 -115.5v-115q0 -27 18 -44t46 -17z" />
    <glyph glyph-name="asciitilde" unicode="~" horiz-adv-x="620" 
d="M446 346h108q-1 -92 -34.5 -130t-99.5 -38q-42 0 -105 28.5t-83 28.5q-21 0 -36 -17t-15 -43h-112q0 80 41.5 123t102.5 43q38 0 102 -28t89 -28q42 0 42 61z" />
    <glyph glyph-name="uni00A0" unicode="&#xa0;" horiz-adv-x="174" 
 />
    <glyph glyph-name="exclamdown" unicode="&#xa1;" horiz-adv-x="275" 
d="M217 356q0 -31 -22 -52t-54 -21q-33 0 -55.5 21t-22.5 52q0 35 22 56.5t56 21.5q32 0 54 -21.5t22 -56.5zM81 228h119l7 -407h-133z" />
    <glyph glyph-name="cent" unicode="&#xa2;" horiz-adv-x="515" 
d="M351 -97h-124v95q-78 17 -127 76.5t-49 141.5q0 76 49 135t127 76v88h124v-89q65 -16 114 -67l-83 -85q-36 44 -95 44q-44 0 -76.5 -29.5t-32.5 -72.5q0 -48 32 -77.5t77 -29.5q63 0 99 51l89 -79q-47 -63 -124 -82v-96z" />
    <glyph glyph-name="sterling" unicode="&#xa3;" horiz-adv-x="543" 
d="M481 0h-414v105h27q24 0 38.5 14.5t14.5 42.5v127h-80v105h80v61q0 84 59 136.5t154 52.5q62 0 111 -18v-102q-38 15 -90 15q-46 0 -74 -24t-28 -64v-57h169v-105h-169v-125q0 -45 -37 -59h239v-105z" />
    <glyph glyph-name="currency" unicode="&#xa4;" horiz-adv-x="711" 
d="M597 313q0 -65 -35 -121l75 -71l-91 -86l-75 70q-55 -30 -119 -30t-115 28l-73 -72l-90 83l71 72q-38 59 -38 127q0 65 33 118l-68 68l90 84l66 -65q58 32 124 32q71 0 129 -36l68 65l87 -85l-70 -68q31 -54 31 -113zM467 313q0 48 -33.5 82t-81.5 34t-82 -34t-34 -82
t34 -82.5t82 -34.5t81.5 34.5t33.5 82.5z" />
    <glyph glyph-name="yen" unicode="&#xa5;" horiz-adv-x="741" 
d="M438 0h-136v143h-176v74h176v7l-33 52h-143v74h96l-157 250h151l157 -260l160 260h143l-158 -250h75v-74h-122l-33 -52v-7h155v-74h-155v-143z" />
    <glyph glyph-name="brokenbar" unicode="&#xa6;" horiz-adv-x="310" 
d="M217 351h-135v339h135v-339zM217 -114h-135v339h135v-339z" />
    <glyph glyph-name="section" unicode="&#xa7;" horiz-adv-x="576" 
d="M328 47l-132 56q-138 60 -138 168q0 75 76 117q-69 50 -69 129q0 74 64.5 123t166.5 49q119 0 211 -65l-59 -93q-63 49 -147 49q-45 0 -69.5 -17t-24.5 -43q0 -36 52 -58l134 -56q143 -60 143 -170q0 -76 -73 -119q62 -49 62 -125q0 -77 -65.5 -127.5t-170.5 -50.5
q-61 0 -123.5 21.5t-105.5 57.5l59 103q78 -68 167 -68q44 0 68.5 16.5t24.5 43.5q0 38 -51 59zM351 287l-109 46q-23 -6 -36 -21.5t-13 -34.5q0 -38 52 -58l106 -45q51 13 51 54q0 38 -51 59z" />
    <glyph glyph-name="dieresis" unicode="&#xa8;" 
d="M345 567q0 -32 -19 -50.5t-48 -18.5t-48.5 19t-19.5 50q0 27 19.5 45t48.5 18t48 -18t19 -45zM540 567q0 -31 -19.5 -50t-48.5 -19t-48.5 19t-19.5 50q0 27 19.5 45t48.5 18t48.5 -18t19.5 -45z" />
    <glyph glyph-name="copyright" unicode="&#xa9;" horiz-adv-x="785" 
d="M484 264l60 -50q-52 -73 -142 -73q-75 0 -126.5 47.5t-51.5 119.5q0 69 51.5 116t123.5 47q83 0 138 -65l-57 -56q-31 43 -80 43q-37 0 -64 -24.5t-27 -60.5q0 -39 27 -64t64 -25q53 0 84 45zM397 616q138 0 233 -91t95 -221q0 -131 -95 -222.5t-233 -91.5
q-140 0 -237 91.5t-97 222.5q0 130 97 221t237 91zM396 531q-104 0 -174 -65t-70 -165q0 -97 70 -162t174 -65q101 0 170 65t69 165q0 97 -68.5 162t-170.5 65z" />
    <glyph glyph-name="ordfeminine" unicode="&#xaa;" horiz-adv-x="484" 
d="M394 181h-307v92h307v-92zM387 338h-83v23q-38 -29 -91 -29q-56 0 -91 27t-35 70t40 70.5t108 27.5q19 0 65 -6v5q0 55 -79 55q-58 0 -103 -24v68q47 22 110 22q79 0 119 -35t40 -92v-182zM300 423v47q-25 4 -54 4q-31 0 -49.5 -11.5t-18.5 -30.5q0 -18 14.5 -29
t38.5 -11q48 0 69 31z" />
    <glyph glyph-name="guillemotleft" unicode="&#xab;" horiz-adv-x="517" 
d="M156 420h132l-121 -201l121 -198h-132l-124 198zM370 420h132l-121 -201l121 -198h-132l-124 198z" />
    <glyph glyph-name="logicalnot" unicode="&#xac;" horiz-adv-x="553" 
d="M496 65h-133v113h-296v115h429v-228z" />
    <glyph glyph-name="registered" unicode="&#xae;" horiz-adv-x="578" 
d="M512 438q0 -94 -63 -154t-157 -60q-92 0 -157.5 61t-65.5 153q0 88 65.5 148.5t157.5 60.5q94 0 157 -60t63 -149zM292 281q71 0 114 43.5t43 111.5q0 67 -43.5 110t-113.5 43q-66 0 -113 -43t-47 -108q0 -67 46.5 -112t113.5 -45zM377 478q0 -41 -39 -59l63 -77h-63
l-51 68h-24v-68h-53v200h86q36 0 58.5 -17t22.5 -47zM294 500h-31v-49h31q11 0 18.5 7.5t7.5 17.5t-7.5 17t-18.5 7z" />
    <glyph glyph-name="macron" unicode="&#xaf;" 
d="M221 509v99h312v-99h-312z" />
    <glyph glyph-name="degree" unicode="&#xb0;" horiz-adv-x="459" 
d="M370 511q0 -57 -41.5 -97.5t-100.5 -40.5t-101.5 40.5t-42.5 97.5t42 96.5t102 39.5q59 0 100.5 -39.5t41.5 -96.5zM279 511q0 21 -15 36.5t-37 15.5t-37.5 -15.5t-15.5 -36.5q0 -23 15.5 -38.5t37.5 -15.5t37 15.5t15 38.5z" />
    <glyph glyph-name="plusminus" unicode="&#xb1;" horiz-adv-x="507" 
d="M316 120h-105v128h-145v90h145v119h105v-119h146v-90h-146v-128zM66 0v83h396v-83h-396z" />
    <glyph glyph-name="acute" unicode="&#xb4;" 
d="M377 647h128v-5l-134 -157h-119z" />
    <glyph glyph-name="mu" unicode="&#xb5;" horiz-adv-x="545" 
d="M51 425h132v-235q0 -39 21 -60t56 -21q28 0 56 14t45 36v266h132v-425h-124v51q-67 -60 -149 -60q-19 0 -37 3v-204h-132v635z" />
    <glyph glyph-name="mu" unicode="&#x3bc;" horiz-adv-x="545" 
d="M51 425h132v-235q0 -39 21 -60t56 -21q28 0 56 14t45 36v266h132v-425h-124v51q-67 -60 -149 -60q-19 0 -37 3v-204h-132v635z" />
    <glyph glyph-name="paragraph" unicode="&#xb6;" horiz-adv-x="667" 
d="M322 214h-25q-107 0 -177.5 59.5t-70.5 153.5q0 96 69.5 152.5t178.5 56.5h119v-769h-94v347zM494 -133v769h94v-769h-94z" />
    <glyph glyph-name="periodcentered" unicode="&#xb7;" 
d="M451 302q0 -35 -22 -56.5t-54 -21.5q-34 0 -56 21.5t-22 56.5q0 31 22.5 52t55.5 21q32 0 54 -21t22 -52z" />
    <glyph glyph-name="cedilla" unicode="&#xb8;" 
d="M456 -107q0 -35 -28.5 -57t-75.5 -22q-32 0 -54 5l-12 52q24 -6 53 -6q46 0 46 25q0 18 -35 18q-21 0 -34 -2l-9 50q27 6 59 6q39 0 64.5 -18.5t25.5 -50.5z" />
    <glyph glyph-name="ordmasculine" unicode="&#xba;" horiz-adv-x="478" 
d="M394 181h-307v92h307v-92zM72 489q0 66 47 112t116 46q68 0 115.5 -46t47.5 -112q0 -65 -47.5 -111t-115.5 -46t-115.5 46t-47.5 111zM167 490q0 -33 19 -53t49 -20t49 20t19 53q0 32 -19.5 53t-48.5 21t-48.5 -21t-19.5 -53z" />
    <glyph glyph-name="guillemotright" unicode="&#xbb;" horiz-adv-x="520" 
d="M24 420h132l124 -201l-124 -198h-132l121 198zM241 420h132l124 -201l-124 -198h-132l121 198z" />
    <glyph glyph-name="questiondown" unicode="&#xbf;" horiz-adv-x="486" 
d="M195 242h120v-31q0 -37 -12 -64.5t-42 -56.5q-8 -7 -30 -27t-31 -29t-18.5 -24.5t-9.5 -29.5q0 -62 83 -62q33 0 67.5 19.5t61.5 48.5l72 -83q-39 -41 -93.5 -68t-112.5 -27q-94 0 -151.5 45.5t-57.5 115.5q0 24 7.5 45t27.5 44.5t31 34.5t40 38q48 43 48 79v32zM177 356
q0 35 22 56.5t55 21.5t55 -21.5t22 -56.5q0 -31 -22.5 -52t-54.5 -21t-54.5 21t-22.5 52z" />
    <glyph glyph-name="Agrave" unicode="&#xc0;" horiz-adv-x="777" 
d="M615 0l-69 143h-321l-69 -143h-143l305 600h142l309 -600h-154zM387 475l-111 -227h220zM238 756h131l74 -112h-121l-84 106v6z" />
    <glyph glyph-name="Aacute" unicode="&#xc1;" horiz-adv-x="781" 
d="M615 0l-69 143h-321l-69 -143h-143l305 600h142l309 -600h-154zM387 475l-111 -227h220zM412 761h133v-6l-87 -106h-129z" />
    <glyph glyph-name="Acircumflex" unicode="&#xc2;" horiz-adv-x="778" 
d="M615 0l-69 143h-321l-69 -143h-143l305 600h142l309 -600h-154zM316 762h143l95 -128h-116l-51 64l-50 -64h-116zM387 475l-111 -227h220z" />
    <glyph glyph-name="Atilde" unicode="&#xc3;" horiz-adv-x="778" 
d="M615 0l-69 143h-321l-69 -143h-143l305 600h142l309 -600h-154zM307 659h-90v7q0 55 28.5 85t73.5 30q28 0 70.5 -15t54.5 -15q28 0 28 30v5h85v-9q0 -113 -99 -113q-28 0 -70.5 15.5t-51.5 15.5q-29 0 -29 -36zM387 475l-111 -227h220z" />
    <glyph glyph-name="Adieresis" unicode="&#xc4;" horiz-adv-x="780" 
d="M615 0l-69 143h-321l-69 -143h-143l305 600h142l309 -600h-154zM387 475l-111 -227h220zM552 700q0 -31 -19.5 -49.5t-48.5 -18.5t-48.5 18.5t-19.5 49.5q0 27 19.5 45t48.5 18t48.5 -18t19.5 -45zM357 700q0 -31 -19 -49.5t-48 -18.5t-48.5 18.5t-19.5 49.5
q0 27 19.5 45t48.5 18t48 -18t19 -45z" />
    <glyph glyph-name="Aring" unicode="&#xc5;" horiz-adv-x="780" 
d="M615 0l-69 143h-321l-69 -143h-143l305 600h142l309 -600h-154zM490 725q0 -45 -28.5 -72.5t-71.5 -27.5q-44 0 -73 27.5t-29 72.5q0 41 29.5 68t72.5 27q42 0 71 -27t29 -68zM387 475l-111 -227h220zM422 723q0 13 -9.5 22t-22.5 9q-14 0 -23.5 -9t-9.5 -22
q0 -15 9.5 -23.5t23.5 -8.5t23 8.5t9 23.5z" />
    <glyph glyph-name="AE" unicode="&#xc6;" horiz-adv-x="912" 
d="M884 0h-418v142l-216 1l-95 -143h-142l409 600h463v-115h-286v-128h271v-109h-271v-133h285v-115zM318 248h148v223z" />
    <glyph glyph-name="Ccedilla" unicode="&#xc7;" horiz-adv-x="643" 
d="M526 197l95 -82q-100 -128 -262 -128q-142 0 -239 89.5t-97 228.5q0 131 95 219.5t234 88.5q152 0 255 -116l-93 -88q-60 79 -160 79q-81 0 -138.5 -52.5t-57.5 -130.5q0 -86 58.5 -139.5t138.5 -53.5q104 0 171 85zM429 -107q0 -35 -28.5 -57t-75.5 -22q-32 0 -54 5
l-12 52q24 -6 53 -6q46 0 46 25q0 18 -35 18q-21 0 -34 -2l-9 50q27 6 59 6q39 0 64.5 -18.5t25.5 -50.5z" />
    <glyph glyph-name="Egrave" unicode="&#xc8;" horiz-adv-x="516" 
d="M142 761h131l74 -112h-121l-84 106v6zM487 0h-417v600h418v-115h-285v-128h270v-109h-270v-133h284v-115z" />
    <glyph glyph-name="Eacute" unicode="&#xc9;" horiz-adv-x="519" 
d="M292 761h133v-6l-87 -106h-129zM487 0h-417v600h418v-115h-285v-128h270v-109h-270v-133h284v-115z" />
    <glyph glyph-name="Ecircumflex" unicode="&#xca;" horiz-adv-x="518" 
d="M487 0h-417v600h418v-115h-285v-128h270v-109h-270v-133h284v-115zM210 762h143l95 -128h-116l-51 64l-50 -64h-116z" />
    <glyph glyph-name="Edieresis" unicode="&#xcb;" horiz-adv-x="519" 
d="M487 0h-417v600h418v-115h-285v-128h270v-109h-270v-133h284v-115zM253 700q0 -31 -19 -49.5t-48 -18.5t-48.5 18.5t-19.5 49.5q0 27 19.5 45t48.5 18t48 -18t19 -45zM448 700q0 -31 -19.5 -49.5t-48.5 -18.5t-48.5 18.5t-19.5 49.5q0 27 19.5 45t48.5 18t48.5 -18
t19.5 -45z" />
    <glyph glyph-name="Igrave" unicode="&#xcc;" horiz-adv-x="294" 
d="M216 0h-137v600h137v-600zM-1 761h131l74 -112h-121l-84 106v6z" />
    <glyph glyph-name="Iacute" unicode="&#xcd;" horiz-adv-x="294" 
d="M216 0h-137v600h137v-600zM166 761h133v-6l-87 -106h-129z" />
    <glyph glyph-name="Icircumflex" unicode="&#xce;" horiz-adv-x="294" 
d="M216 0h-137v600h137v-600zM78 762h143l95 -128h-116l-51 64l-50 -64h-116z" />
    <glyph glyph-name="Idieresis" unicode="&#xcf;" horiz-adv-x="294" 
d="M216 0h-137v600h137v-600zM119 700q0 -31 -19 -49.5t-48 -18.5t-48.5 18.5t-19.5 49.5q0 27 19.5 45t48.5 18t48 -18t19 -45zM314 700q0 -31 -19.5 -49.5t-48.5 -18.5t-48.5 18.5t-19.5 49.5q0 27 19.5 45t48.5 18t48.5 -18t19.5 -45z" />
    <glyph glyph-name="Eth" unicode="&#xd0;" horiz-adv-x="670" 
d="M23 257v99h71v244h211q163 0 252.5 -74t89.5 -217q0 -140 -91.5 -224.5t-249.5 -84.5h-212v257h-71zM227 115h78q99 0 152 50.5t53 140.5q0 86 -52.5 132.5t-152.5 46.5h-78v-129h108v-99h-108v-142z" />
    <glyph glyph-name="Ntilde" unicode="&#xd1;" horiz-adv-x="715" 
d="M654 0h-127l-326 387v-387h-131v600h124l326 -387v387h134v-600zM272 659h-90v7q0 55 28.5 85t73.5 30q28 0 70.5 -15t54.5 -15q28 0 28 30v5h85v-9q0 -113 -99 -113q-28 0 -70.5 15.5t-51.5 15.5q-29 0 -29 -36z" />
    <glyph glyph-name="Ograve" unicode="&#xd2;" horiz-adv-x="701" 
d="M203 761h131l74 -112h-121l-84 106v6zM28 302q0 130 95 220.5t228 90.5t228.5 -90.5t95.5 -220.5q0 -131 -95.5 -223t-228.5 -92t-228 92t-95 223zM162 302q0 -82 54.5 -137t134.5 -55q81 0 134 54.5t53 137.5q0 81 -53 134.5t-134 53.5q-80 0 -134.5 -54.5t-54.5 -133.5
z" />
    <glyph glyph-name="Oacute" unicode="&#xd3;" horiz-adv-x="703" 
d="M364 761h133v-6l-87 -106h-129zM28 302q0 130 95 220.5t228 90.5t228.5 -90.5t95.5 -220.5q0 -131 -95.5 -223t-228.5 -92t-228 92t-95 223zM162 302q0 -82 54.5 -137t134.5 -55q81 0 134 54.5t53 137.5q0 81 -53 134.5t-134 53.5q-80 0 -134.5 -54.5t-54.5 -133.5z" />
    <glyph glyph-name="Ocircumflex" unicode="&#xd4;" horiz-adv-x="703" 
d="M28 302q0 130 95 220.5t228 90.5t228.5 -90.5t95.5 -220.5q0 -131 -95.5 -223t-228.5 -92t-228 92t-95 223zM162 302q0 -82 54.5 -137t134.5 -55q81 0 134 54.5t53 137.5q0 81 -53 134.5t-134 53.5q-80 0 -134.5 -54.5t-54.5 -133.5zM281 762h143l95 -128h-116l-51 64
l-50 -64h-116z" />
    <glyph glyph-name="Otilde" unicode="&#xd5;" horiz-adv-x="703" 
d="M28 302q0 130 95 220.5t228 90.5t228.5 -90.5t95.5 -220.5q0 -131 -95.5 -223t-228.5 -92t-228 92t-95 223zM162 302q0 -82 54.5 -137t134.5 -55q81 0 134 54.5t53 137.5q0 81 -53 134.5t-134 53.5q-80 0 -134.5 -54.5t-54.5 -133.5zM269 659h-90v7q0 55 28.5 85t73.5 30
q28 0 70.5 -15t54.5 -15q28 0 28 30v5h85v-9q0 -113 -99 -113q-28 0 -70.5 15.5t-51.5 15.5q-29 0 -29 -36z" />
    <glyph glyph-name="Odieresis" unicode="&#xd6;" horiz-adv-x="703" 
d="M28 302q0 130 95 220.5t228 90.5t228.5 -90.5t95.5 -220.5q0 -131 -95.5 -223t-228.5 -92t-228 92t-95 223zM162 302q0 -82 54.5 -137t134.5 -55q81 0 134 54.5t53 137.5q0 81 -53 134.5t-134 53.5q-80 0 -134.5 -54.5t-54.5 -133.5zM327 700q0 -31 -19 -49.5t-48 -18.5
t-48.5 18.5t-19.5 49.5q0 27 19.5 45t48.5 18t48 -18t19 -45zM522 700q0 -31 -19.5 -49.5t-48.5 -18.5t-48.5 18.5t-19.5 49.5q0 27 19.5 45t48.5 18t48.5 -18t19.5 -45z" />
    <glyph glyph-name="multiply" unicode="&#xd7;" horiz-adv-x="561" 
d="M418 427l75 -78l-131 -129l144 -147l-78 -76l-144 146l-148 -145l-77 78l148 146l-130 134l78 75l130 -133z" />
    <glyph glyph-name="Oslash" unicode="&#xd8;" horiz-adv-x="700" 
d="M57 -88l87 148q-116 95 -116 242q0 130 95 220.5t228 90.5q54 0 105 -17l59 100h136l-91 -157q54 -43 84.5 -104.5t30.5 -132.5q0 -131 -95.5 -223t-228.5 -92q-48 0 -101 15l-52 -90h-141zM162 302q0 -75 47 -130l183 314q-26 4 -41 4q-80 0 -134.5 -54.5t-54.5 -133.5z
M538 302q0 71 -44 123l-180 -312q18 -3 37 -3q81 0 134 54.5t53 137.5z" />
    <glyph glyph-name="Ugrave" unicode="&#xd9;" horiz-adv-x="663" 
d="M190 760h131l74 -112h-121l-84 106v6zM468 254v346h131v-345q0 -129 -72.5 -198.5t-192.5 -69.5q-116 0 -193 69t-77 199v345h133v-346q0 -72 39 -108t98 -36q61 0 97.5 35.5t36.5 108.5z" />
    <glyph glyph-name="Uacute" unicode="&#xda;" horiz-adv-x="665" 
d="M468 254v346h131v-345q0 -129 -72.5 -198.5t-192.5 -69.5q-116 0 -193 69t-77 199v345h133v-346q0 -72 39 -108t98 -36q61 0 97.5 35.5t36.5 108.5zM348 761h133v-6l-87 -106h-129z" />
    <glyph glyph-name="Ucircumflex" unicode="&#xdb;" horiz-adv-x="667" 
d="M468 254v346h131v-345q0 -129 -72.5 -198.5t-192.5 -69.5q-116 0 -193 69t-77 199v345h133v-346q0 -72 39 -108t98 -36q61 0 97.5 35.5t36.5 108.5zM266 762h143l95 -128h-116l-51 64l-50 -64h-116z" />
    <glyph glyph-name="Udieresis" unicode="&#xdc;" horiz-adv-x="665" 
d="M468 254v346h131v-345q0 -129 -72.5 -198.5t-192.5 -69.5q-116 0 -193 69t-77 199v345h133v-346q0 -72 39 -108t98 -36q61 0 97.5 35.5t36.5 108.5zM312 700q0 -31 -19 -49.5t-48 -18.5t-48.5 18.5t-19.5 49.5q0 27 19.5 45t48.5 18t48 -18t19 -45zM507 700
q0 -31 -19.5 -49.5t-48.5 -18.5t-48.5 18.5t-19.5 49.5q0 27 19.5 45t48.5 18t48.5 -18t19.5 -45z" />
    <glyph glyph-name="Yacute" unicode="&#xdd;" horiz-adv-x="635" 
d="M385 0h-136v224l-237 376h151l157 -260l160 260h143l-238 -376v-224zM328 761h133v-6l-87 -106h-129z" />
    <glyph glyph-name="Thorn" unicode="&#xde;" horiz-adv-x="582" 
d="M70 690h133v-96h103q109 0 178.5 -56t69.5 -152q0 -95 -71 -154t-177 -59h-103v-173h-133v690zM303 482h-100v-197h99q53 0 86.5 27.5t33.5 74.5q0 45 -33 70t-86 25z" />
    <glyph glyph-name="germandbls" unicode="&#xdf;" horiz-adv-x="624" 
d="M70 0v404q0 112 75 184t188 72q109 0 169.5 -44t60.5 -114q0 -35 -18.5 -62.5t-45.5 -43t-53.5 -28t-45 -26t-18.5 -28.5q0 -25 39 -42l74 -33q105 -42 105 -120q0 -57 -49 -93t-128 -36q-113 0 -178 58l48 78q58 -45 121 -45q29 0 47 8t18 23q0 20 -35.5 37.5t-78.5 31
t-78.5 46.5t-35.5 80q0 68 80 110l54 28q44 23 44 49q0 28 -25 45.5t-71 17.5q-131 0 -131 -186v-371h-132z" />
    <glyph glyph-name="agrave" unicode="&#xe0;" horiz-adv-x="500" 
d="M58 646h128l125 -162h-119l-134 157v5zM452 0h-117v32q-53 -41 -127 -41q-80 0 -129 38t-49 99t56.5 99.5t152.5 38.5q27 0 91 -8v7q0 35 -27 56t-84 21q-80 0 -145 -34v95q67 31 155 31q110 0 166.5 -49t56.5 -129v-256zM330 119v66q-32 6 -76 6q-43 0 -69 -16.5
t-26 -42.5t20.5 -41t53.5 -15q67 0 97 43z" />
    <glyph glyph-name="aacute" unicode="&#xe1;" horiz-adv-x="500" 
d="M450 0h-117v32q-53 -41 -127 -41q-80 0 -129 38t-49 99t56.5 99.5t152.5 38.5q27 0 91 -8v7q0 35 -27 56t-84 21q-80 0 -145 -34v95q67 31 155 31q110 0 166.5 -49t56.5 -129v-256zM328 119v66q-32 6 -76 6q-43 0 -69 -16.5t-26 -42.5t20.5 -41t53.5 -15q67 0 97 43z
M305 647h128v-5l-134 -157h-119z" />
    <glyph glyph-name="acircumflex" unicode="&#xe2;" horiz-adv-x="500" 
d="M452 0h-117v32q-53 -41 -127 -41q-80 0 -129 38t-49 99t56.5 99.5t152.5 38.5q27 0 91 -8v7q0 35 -27 56t-84 21q-80 0 -145 -34v95q67 31 155 31q110 0 166.5 -49t56.5 -129v-256zM330 119v66q-32 6 -76 6q-43 0 -69 -16.5t-26 -42.5t20.5 -41t53.5 -15q67 0 97 43z
M182 647h134l121 -159h-120l-68 85l-68 -85h-120z" />
    <glyph glyph-name="atilde" unicode="&#xe3;" horiz-adv-x="500" 
d="M453 0h-117v32q-53 -41 -127 -41q-80 0 -129 38t-49 99t56.5 99.5t152.5 38.5q27 0 91 -8v7q0 35 -27 56t-84 21q-80 0 -145 -34v95q67 31 155 31q110 0 166.5 -49t56.5 -129v-256zM331 119v66q-32 6 -76 6q-43 0 -69 -16.5t-26 -42.5t20.5 -41t53.5 -15q67 0 97 43z
M176 515h-91q0 59 28 91t75 32q28 0 70 -15.5t54 -15.5q29 0 29 35h84v-9q0 -112 -98 -112q-29 0 -71.5 15.5t-51.5 15.5q-28 0 -28 -37z" />
    <glyph glyph-name="adieresis" unicode="&#xe4;" horiz-adv-x="500" 
d="M453 0h-117v32q-53 -41 -127 -41q-80 0 -129 38t-49 99t56.5 99.5t152.5 38.5q27 0 91 -8v7q0 35 -27 56t-84 21q-80 0 -145 -34v95q67 31 155 31q110 0 166.5 -49t56.5 -129v-256zM331 119v66q-32 6 -76 6q-43 0 -69 -16.5t-26 -42.5t20.5 -41t53.5 -15q67 0 97 43z
M221 567q0 -32 -19 -50.5t-48 -18.5t-48.5 19t-19.5 50q0 27 19.5 45t48.5 18t48 -18t19 -45zM416 567q0 -31 -19.5 -50t-48.5 -19t-48.5 19t-19.5 50q0 27 19.5 45t48.5 18t48.5 -18t19.5 -45z" />
    <glyph glyph-name="aring" unicode="&#xe5;" horiz-adv-x="500" 
d="M452 0h-117v32q-53 -41 -127 -41q-80 0 -129 38t-49 99t56.5 99.5t152.5 38.5q27 0 91 -8v7q0 35 -27 56t-84 21q-80 0 -145 -34v95q67 31 155 31q110 0 166.5 -49t56.5 -129v-256zM330 119v66q-32 6 -76 6q-43 0 -69 -16.5t-26 -42.5t20.5 -41t53.5 -15q67 0 97 43z
M353 573q0 -45 -28.5 -72t-71.5 -27q-44 0 -73 27t-29 72q0 41 29.5 68t72.5 27q42 0 71 -27t29 -68zM285 571q0 13 -9 22t-23 9t-23.5 -9t-9.5 -22q0 -15 9.5 -23.5t23.5 -8.5t23 8.5t9 23.5z" />
    <glyph glyph-name="ae" unicode="&#xe6;" horiz-adv-x="808" 
d="M230 434q117 0 173 -62q60 62 152 62q104 0 166.5 -70t57.5 -189h-316q7 -41 37 -62.5t77 -21.5q75 0 120 50l64 -80q-76 -70 -186 -70q-120 0 -187 81q-62 -81 -176 -81q-80 0 -129.5 38t-49.5 100q0 61 56.5 99.5t153.5 38.5q33 0 91 -7v7q0 34 -27.5 54.5t-84.5 20.5
q-77 0 -145 -33v94q67 31 153 31zM334 143v43q-38 7 -79 7q-47 0 -71 -16.5t-24 -44.5q0 -25 20.5 -40t54.5 -15q41 0 67 19.5t32 46.5zM559 342q-39 0 -64.5 -24t-30.5 -62h188q-4 39 -27.5 62.5t-65.5 23.5z" />
    <glyph glyph-name="ccedilla" unicode="&#xe7;" horiz-adv-x="477" 
d="M366 160l89 -79q-67 -90 -190 -90q-99 0 -166.5 64.5t-67.5 160.5q0 91 68 154.5t166 63.5q108 0 180 -75l-83 -85q-36 44 -95 44q-44 0 -76.5 -29.5t-32.5 -72.5q0 -48 32 -77.5t77 -29.5q63 0 99 51zM346 -107q0 -35 -28.5 -57t-75.5 -22q-32 0 -54 5l-12 52
q24 -6 53 -6q46 0 46 25q0 18 -35 18q-21 0 -34 -2l-9 50q27 6 59 6q39 0 64.5 -18.5t25.5 -50.5z" />
    <glyph glyph-name="egrave" unicode="&#xe8;" horiz-adv-x="496" 
d="M471 173h-318q8 -39 39 -60.5t77 -21.5q73 0 117 49l67 -77q-75 -72 -184 -72q-106 0 -174 62.5t-68 161.5q0 91 63.5 155t155.5 64q104 0 166.5 -70t58.5 -191zM250 342q-38 0 -64.5 -24.5t-31.5 -60.5h189q-3 37 -27 61t-66 24zM63 647h128l125 -162h-119l-134 157v5z
" />
    <glyph glyph-name="eacute" unicode="&#xe9;" horiz-adv-x="496" 
d="M473 173h-318q8 -39 39 -60.5t77 -21.5q73 0 117 49l67 -77q-75 -72 -184 -72q-106 0 -174 62.5t-68 161.5q0 91 63.5 155t155.5 64q104 0 166.5 -70t58.5 -191zM252 342q-38 0 -64.5 -24.5t-31.5 -60.5h189q-3 37 -27 61t-66 24zM316 647h128v-5l-134 -157h-119z" />
    <glyph glyph-name="ecircumflex" unicode="&#xea;" horiz-adv-x="496" 
d="M472 173h-318q8 -39 39 -60.5t77 -21.5q73 0 117 49l67 -77q-75 -72 -184 -72q-106 0 -174 62.5t-68 161.5q0 91 63.5 155t155.5 64q104 0 166.5 -70t58.5 -191zM251 342q-38 0 -64.5 -24.5t-31.5 -60.5h189q-3 37 -27 61t-66 24zM188 647h134l121 -159h-120l-68 85
l-68 -85h-120z" />
    <glyph glyph-name="edieresis" unicode="&#xeb;" horiz-adv-x="496" 
d="M473 173h-318q8 -39 39 -60.5t77 -21.5q73 0 117 49l67 -77q-75 -72 -184 -72q-106 0 -174 62.5t-68 161.5q0 91 63.5 155t155.5 64q104 0 166.5 -70t58.5 -191zM252 342q-38 0 -64.5 -24.5t-31.5 -60.5h189q-3 37 -27 61t-66 24zM230 567q0 -32 -19 -50.5t-48 -18.5
t-48.5 19t-19.5 50q0 27 19.5 45t48.5 18t48 -18t19 -45zM425 567q0 -31 -19.5 -50t-48.5 -19t-48.5 19t-19.5 50q0 27 19.5 45t48.5 18t48.5 -18t19.5 -45z" />
    <glyph glyph-name="igrave" unicode="&#xec;" horiz-adv-x="261" 
d="M203 0h-132v425h132v-425zM-62 662h128l125 -162h-119l-134 157v5z" />
    <glyph glyph-name="iacute" unicode="&#xed;" horiz-adv-x="263" 
d="M201 0h-132v425h132v-425zM199 647h128v-5l-134 -157h-119z" />
    <glyph glyph-name="icircumflex" unicode="&#xee;" horiz-adv-x="262" 
d="M201 0h-132v425h132v-425zM69 647h134l121 -159h-120l-68 85l-68 -85h-120z" />
    <glyph glyph-name="idieresis" unicode="&#xef;" horiz-adv-x="264" 
d="M202 0h-132v425h132v-425zM108 567q0 -32 -19 -50.5t-48 -18.5t-48.5 19t-19.5 50q0 27 19.5 45t48.5 18t48 -18t19 -45zM303 567q0 -31 -19.5 -50t-48.5 -19t-48.5 19t-19.5 50q0 27 19.5 45t48.5 18t48.5 -18t19.5 -45z" />
    <glyph glyph-name="eth" unicode="&#xf0;" horiz-adv-x="532" 
d="M30 196q0 90 58 146.5t154 56.5q84 0 132 -51q-3 63 -30 100l-49 -31l-42 56l34 21q-28 11 -58 11q-60 0 -111 -32l-53 92q70 48 172 48q93 0 157 -49l60 38l43 -56l-54 -35q57 -84 57 -231q0 -80 -20.5 -139t-55 -91.5t-75 -47.5t-86.5 -15q-103 0 -168 59t-65 150z
M259 295q-46 0 -74 -26.5t-28 -71.5q0 -43 29 -71t73 -28q43 0 72.5 28t29.5 72t-29 70.5t-73 26.5z" />
    <glyph glyph-name="ntilde" unicode="&#xf1;" horiz-adv-x="558" 
d="M505 0h-132v235q0 39 -21 60t-56 21q-28 0 -56 -14t-45 -36v-266h-132v425h124v-51q67 60 149 60q77 0 123 -43t46 -127v-264zM197 515h-91q0 59 28 91t75 32q28 0 70 -15.5t54 -15.5q29 0 29 35h84v-9q0 -112 -98 -112q-29 0 -71.5 15.5t-51.5 15.5q-28 0 -28 -37z" />
    <glyph glyph-name="ograve" unicode="&#xf2;" horiz-adv-x="508" 
d="M71 662h128l125 -162h-119l-134 157v5zM27 213q0 93 66.5 157t162.5 64t162.5 -64.5t66.5 -156.5t-66.5 -157t-162.5 -65t-162.5 65t-66.5 157zM160 214q0 -46 27 -74.5t69 -28.5t69 28.5t27 74.5q0 45 -27.5 74.5t-68.5 29.5t-68.5 -29.5t-27.5 -74.5z" />
    <glyph glyph-name="oacute" unicode="&#xf3;" horiz-adv-x="508" 
d="M27 213q0 93 66.5 157t162.5 64t162.5 -64.5t66.5 -156.5t-66.5 -157t-162.5 -65t-162.5 65t-66.5 157zM160 214q0 -46 27 -74.5t69 -28.5t69 28.5t27 74.5q0 45 -27.5 74.5t-68.5 29.5t-68.5 -29.5t-27.5 -74.5zM325 647h128v-5l-134 -157h-119z" />
    <glyph glyph-name="ocircumflex" unicode="&#xf4;" horiz-adv-x="508" 
d="M27 213q0 93 66.5 157t162.5 64t162.5 -64.5t66.5 -156.5t-66.5 -157t-162.5 -65t-162.5 65t-66.5 157zM160 214q0 -46 27 -74.5t69 -28.5t69 28.5t27 74.5q0 45 -27.5 74.5t-68.5 29.5t-68.5 -29.5t-27.5 -74.5zM190 647h134l121 -159h-120l-68 85l-68 -85h-120z" />
    <glyph glyph-name="otilde" unicode="&#xf5;" horiz-adv-x="508" 
d="M178 515h-91q0 59 28 91t75 32q28 0 70 -15.5t54 -15.5q29 0 29 35h84v-9q0 -112 -98 -112q-29 0 -71.5 15.5t-51.5 15.5q-28 0 -28 -37zM27 213q0 93 66.5 157t162.5 64t162.5 -64.5t66.5 -156.5t-66.5 -157t-162.5 -65t-162.5 65t-66.5 157zM160 214q0 -46 27 -74.5
t69 -28.5t69 28.5t27 74.5q0 45 -27.5 74.5t-68.5 29.5t-68.5 -29.5t-27.5 -74.5z" />
    <glyph glyph-name="odieresis" unicode="&#xf6;" horiz-adv-x="508" 
d="M27 213q0 93 66.5 157t162.5 64t162.5 -64.5t66.5 -156.5t-66.5 -157t-162.5 -65t-162.5 65t-66.5 157zM160 214q0 -46 27 -74.5t69 -28.5t69 28.5t27 74.5q0 45 -27.5 74.5t-68.5 29.5t-68.5 -29.5t-27.5 -74.5zM232 567q0 -32 -19 -50.5t-48 -18.5t-48.5 19t-19.5 50
q0 27 19.5 45t48.5 18t48 -18t19 -45zM427 567q0 -31 -19.5 -50t-48.5 -19t-48.5 19t-19.5 50q0 27 19.5 45t48.5 18t48.5 -18t19.5 -45z" />
    <glyph glyph-name="divide" unicode="&#xf7;" horiz-adv-x="587" 
d="M373 395q0 -35 -22 -56.5t-54 -21.5q-34 0 -56 21.5t-22 56.5q0 31 22.5 52t55.5 21q32 0 54 -21t22 -52zM373 65q0 -35 -22 -56.5t-54 -21.5q-34 0 -56 21.5t-22 56.5q0 31 22.5 52t55.5 21q32 0 54 -21t22 -52zM86 172v117h420v-117h-420z" />
    <glyph glyph-name="oslash" unicode="&#xf8;" horiz-adv-x="508" 
d="M27 213q0 93 66.5 157t162.5 64q47 0 90 -17l52 89h70l-70 -119q87 -67 87 -174q0 -92 -66.5 -157t-162.5 -65q-42 0 -81 14l-54 -93h-72l71 121q-93 67 -93 180zM160 214q0 -43 24 -72l101 171q-15 5 -29 5q-41 0 -68.5 -29.5t-27.5 -74.5zM352 214q0 34 -18 62
l-96 -164q6 -1 18 -1q42 0 69 28.5t27 74.5z" />
    <glyph glyph-name="ugrave" unicode="&#xf9;" horiz-adv-x="555" 
d="M58 425h132v-235q0 -39 21 -60t56 -21q28 0 56 14t45 36v266h132v-425h-124v51q-67 -60 -149 -60q-77 0 -123 43t-46 127v264zM95 647h128l125 -162h-119l-134 157v5z" />
    <glyph glyph-name="uacute" unicode="&#xfa;" horiz-adv-x="558" 
d="M62 425h132v-235q0 -39 21 -60t56 -21q28 0 56 14t45 36v266h132v-425h-124v51q-67 -60 -149 -60q-77 0 -123 43t-46 127v264zM346 647h128v-5l-134 -157h-119z" />
    <glyph glyph-name="ucircumflex" unicode="&#xfb;" horiz-adv-x="558" 
d="M214 647h134l121 -159h-120l-68 85l-68 -85h-120zM58 425h132v-235q0 -39 21 -60t56 -21q28 0 56 14t45 36v266h132v-425h-124v51q-67 -60 -149 -60q-77 0 -123 43t-46 127v264z" />
    <glyph glyph-name="udieresis" unicode="&#xfc;" horiz-adv-x="558" 
d="M252 567q0 -32 -19 -50.5t-48 -18.5t-48.5 19t-19.5 50q0 27 19.5 45t48.5 18t48 -18t19 -45zM447 567q0 -31 -19.5 -50t-48.5 -19t-48.5 19t-19.5 50q0 27 19.5 45t48.5 18t48.5 -18t19.5 -45zM60 425h132v-235q0 -39 21 -60t56 -21q28 0 56 14t45 36v266h132v-425h-124
v51q-67 -60 -149 -60q-77 0 -123 43t-46 127v264z" />
    <glyph glyph-name="yacute" unicode="&#xfd;" horiz-adv-x="544" 
d="M159 425l115 -243l118 243h140q-53 -106 -329 -647h-141l141 270l-191 377h147zM332 647h128v-5l-134 -157h-119z" />
    <glyph glyph-name="thorn" unicode="&#xfe;" horiz-adv-x="567" 
d="M300 434q97 0 166 -61.5t69 -156.5q0 -102 -67.5 -163.5t-154.5 -61.5q-63 0 -112 32v-245h-131v869h131v-234q44 21 99 21zM288 100q47 0 80 30.5t33 85.5q0 50 -33.5 80t-81.5 30t-85 -22v-166q29 -38 87 -38z" />
    <glyph glyph-name="ydieresis" unicode="&#xff;" horiz-adv-x="543" 
d="M159 425l115 -243l118 243h140q-53 -106 -329 -647h-141l141 270l-191 377h147zM244 567q0 -32 -19 -50.5t-48 -18.5t-48.5 19t-19.5 50q0 27 19.5 45t48.5 18t48 -18t19 -45zM439 567q0 -31 -19.5 -50t-48.5 -19t-48.5 19t-19.5 50q0 27 19.5 45t48.5 18t48.5 -18
t19.5 -45z" />
    <glyph glyph-name="Amacron" unicode="&#x100;" horiz-adv-x="781" 
d="M615 0l-69 143h-321l-69 -143h-143l305 600h142l309 -600h-154zM231 677v101h312v-101h-312zM387 475l-111 -227h220z" />
    <glyph glyph-name="amacron" unicode="&#x101;" horiz-adv-x="500" 
d="M453 0h-117v32q-53 -41 -127 -41q-80 0 -129 38t-49 99t56.5 99.5t152.5 38.5q27 0 91 -8v7q0 35 -27 56t-84 21q-80 0 -145 -34v95q67 31 155 31q110 0 166.5 -49t56.5 -129v-256zM331 119v66q-32 6 -76 6q-43 0 -69 -16.5t-26 -42.5t20.5 -41t53.5 -15q67 0 97 43z
M98 509v99h312v-99h-312z" />
    <glyph glyph-name="Abreve" unicode="&#x102;" horiz-adv-x="779" 
d="M615 0l-69 143h-321l-69 -143h-143l305 600h142l309 -600h-154zM391 642q-70 0 -110.5 37.5t-46.5 93.5h99q0 -27 17 -42t41 -15q22 0 39 15.5t18 41.5h98q-5 -56 -45 -93.5t-110 -37.5zM387 475l-111 -227h220z" />
    <glyph glyph-name="abreve" unicode="&#x103;" horiz-adv-x="500" 
d="M451 0h-117v32q-53 -41 -127 -41q-80 0 -129 38t-49 99t56.5 99.5t152.5 38.5q27 0 91 -8v7q0 35 -27 56t-84 21q-80 0 -145 -34v95q67 31 155 31q110 0 166.5 -49t56.5 -129v-256zM329 119v66q-32 6 -76 6q-43 0 -69 -16.5t-26 -42.5t20.5 -41t53.5 -15q67 0 97 43z
M249 488q-70 0 -110.5 37.5t-46.5 93.5h99q0 -26 17 -41t41 -15q22 0 39 15t18 41h98q-5 -56 -45 -93.5t-110 -37.5z" />
    <glyph glyph-name="Aogonek" unicode="&#x104;" horiz-adv-x="777" 
d="M615 0l-69 143h-321l-69 -143h-143l305 600h142l309 -600h-66q-17 -23 -17 -46q0 -34 42 -34h52v-83h-71q-53 0 -85 25t-32 65q0 38 26 73h-3zM387 475l-111 -227h220z" />
    <glyph glyph-name="aogonek" unicode="&#x105;" horiz-adv-x="500" 
d="M490 -163h-71q-53 0 -85 25t-32 65q0 42 29 77v28q-53 -41 -127 -41q-80 0 -129 38t-49 99t56.5 99.5t152.5 38.5q27 0 91 -8v7q0 35 -27 56t-84 21q-80 0 -145 -34v95q67 31 155 31q110 0 166.5 -49t56.5 -129v-256h-35q-17 -23 -17 -46q0 -34 42 -34h52v-83zM326 119
v66q-32 6 -76 6q-43 0 -69 -16.5t-26 -42.5t20.5 -41t53.5 -15q67 0 97 43z" />
    <glyph glyph-name="Cacute" unicode="&#x106;" horiz-adv-x="649" 
d="M369 761h133v-6l-87 -106h-129zM526 197l95 -82q-100 -128 -262 -128q-142 0 -239 89.5t-97 228.5q0 131 95 219.5t234 88.5q152 0 255 -116l-93 -88q-60 79 -160 79q-81 0 -138.5 -52.5t-57.5 -130.5q0 -86 58.5 -139.5t138.5 -53.5q104 0 171 85z" />
    <glyph glyph-name="cacute" unicode="&#x107;" horiz-adv-x="482" 
d="M368 160l89 -79q-67 -90 -190 -90q-99 0 -166.5 64.5t-67.5 160.5q0 91 68 154.5t166 63.5q108 0 180 -75l-83 -85q-36 44 -95 44q-44 0 -76.5 -29.5t-32.5 -72.5q0 -48 32 -77.5t77 -29.5q63 0 99 51zM324 647h128v-5l-134 -157h-119z" />
    <glyph glyph-name="Ccircumflex" unicode="&#x108;" horiz-adv-x="649" 
d="M527 197l95 -82q-100 -128 -262 -128q-142 0 -239 89.5t-97 228.5q0 131 95 219.5t234 88.5q152 0 255 -116l-93 -88q-60 79 -160 79q-81 0 -138.5 -52.5t-57.5 -130.5q0 -86 58.5 -139.5t138.5 -53.5q104 0 171 85zM280 762h143l95 -128h-116l-51 64l-50 -64h-116z" />
    <glyph glyph-name="ccircumflex" unicode="&#x109;" horiz-adv-x="488" 
d="M202 662h134l121 -159h-120l-68 85l-68 -85h-120zM366 160l89 -79q-67 -90 -190 -90q-99 0 -166.5 64.5t-67.5 160.5q0 91 68 154.5t166 63.5q108 0 180 -75l-83 -85q-36 44 -95 44q-44 0 -76.5 -29.5t-32.5 -72.5q0 -48 32 -77.5t77 -29.5q63 0 99 51z" />
    <glyph glyph-name="Cdotaccent" unicode="&#x10a;" horiz-adv-x="642" 
d="M528 197l95 -82q-100 -128 -262 -128q-142 0 -239 89.5t-97 228.5q0 131 95 219.5t234 88.5q152 0 255 -116l-93 -88q-60 79 -160 79q-81 0 -138.5 -52.5t-57.5 -130.5q0 -86 58.5 -139.5t138.5 -53.5q104 0 171 85zM431 719q0 -35 -22 -56.5t-54 -21.5q-33 0 -55.5 21.5
t-22.5 56.5q0 31 23 51.5t55 20.5t54 -20.5t22 -51.5z" />
    <glyph glyph-name="cdotaccent" unicode="&#x10b;" horiz-adv-x="480" 
d="M366 160l89 -79q-67 -90 -190 -90q-99 0 -166.5 64.5t-67.5 160.5q0 91 68 154.5t166 63.5q108 0 180 -75l-83 -85q-36 44 -95 44q-44 0 -76.5 -29.5t-32.5 -72.5q0 -48 32 -77.5t77 -29.5q63 0 99 51zM342 580q0 -35 -22 -56.5t-54 -21.5q-34 0 -56 21.5t-22 56.5
q0 31 22.5 52t55.5 21q32 0 54 -21t22 -52z" />
    <glyph glyph-name="Ccaron" unicode="&#x10c;" horiz-adv-x="649" 
d="M527 197l95 -82q-100 -128 -262 -128q-142 0 -239 89.5t-97 228.5q0 131 95 219.5t234 88.5q152 0 255 -116l-93 -88q-60 79 -160 79q-81 0 -138.5 -52.5t-57.5 -130.5q0 -86 58.5 -139.5t138.5 -53.5q104 0 171 85zM425 642h-143l-95 128h116l50 -65l51 65h116z" />
    <glyph glyph-name="ccaron" unicode="&#x10d;" horiz-adv-x="485" 
d="M368 160l89 -79q-67 -90 -190 -90q-99 0 -166.5 64.5t-67.5 160.5q0 91 68 154.5t166 63.5q108 0 180 -75l-83 -85q-36 44 -95 44q-44 0 -76.5 -29.5t-32.5 -72.5q0 -48 32 -77.5t77 -29.5q63 0 99 51zM333 478h-135l-120 159h120l68 -86l68 86h119z" />
    <glyph glyph-name="Dcaron" unicode="&#x10e;" horiz-adv-x="648" 
d="M281 0h-212v600h211q163 0 252.5 -74t89.5 -217q0 -140 -91.5 -224.5t-249.5 -84.5zM202 115h78q99 0 152 50.5t53 140.5q0 86 -52.5 132.5t-152.5 46.5h-78v-370zM375 642h-143l-95 128h116l50 -65l51 65h116z" />
    <glyph glyph-name="dcaron" unicode="&#x10f;" horiz-adv-x="636" 
d="M268 434q55 0 99 -21v234h131v-647h-109v40q-51 -49 -134 -49q-87 0 -154.5 61.5t-67.5 163.5q0 95 69 156.5t166 61.5zM280 100q58 0 87 38v166q-37 22 -85 22t-81.5 -30t-33.5 -80q0 -55 33 -85.5t80 -30.5zM633 466h-114q24 86 39 181h118q-18 -102 -43 -181z" />
    <glyph glyph-name="Dcroat" unicode="&#x110;" horiz-adv-x="687" 
d="M26 257v99h76v244h211q163 0 252.5 -74t89.5 -217q0 -140 -91.5 -224.5t-249.5 -84.5h-212v257h-76zM235 115h78q99 0 152 50.5t53 140.5q0 86 -52.5 132.5t-152.5 46.5h-78v-129h103v-99h-103v-142z" />
    <glyph glyph-name="dcroat" unicode="&#x111;" horiz-adv-x="582" 
d="M273 483v99h94v65h131v-65h87v-99h-87v-483h-109v40q-51 -49 -134 -49q-87 0 -154.5 61.5t-67.5 163.5q0 95 69 156.5t166 61.5q55 0 99 -21v70h-94zM280 100q58 0 87 38v166q-37 22 -85 22t-81.5 -30t-33.5 -80q0 -55 33 -85.5t80 -30.5z" />
    <glyph glyph-name="Emacron" unicode="&#x112;" horiz-adv-x="519" 
d="M487 0h-417v600h418v-115h-285v-128h270v-109h-270v-133h284v-115zM124 677v101h312v-101h-312z" />
    <glyph glyph-name="emacron" unicode="&#x113;" horiz-adv-x="496" 
d="M472 173h-318q8 -39 39 -60.5t77 -21.5q73 0 117 49l67 -77q-75 -72 -184 -72q-106 0 -174 62.5t-68 161.5q0 91 63.5 155t155.5 64q104 0 166.5 -70t58.5 -191zM251 342q-38 0 -64.5 -24.5t-31.5 -60.5h189q-3 37 -27 61t-66 24zM98 509v99h312v-99h-312z" />
    <glyph glyph-name="Ebreve" unicode="&#x114;" horiz-adv-x="521" 
d="M487 0h-417v600h418v-115h-285v-128h270v-109h-270v-133h284v-115zM279 642q-70 0 -110.5 37.5t-46.5 93.5h99q0 -27 17 -42t41 -15q22 0 39 15.5t18 41.5h98q-5 -56 -45 -93.5t-110 -37.5z" />
    <glyph glyph-name="ebreve" unicode="&#x115;" horiz-adv-x="496" 
d="M473 173h-318q8 -39 39 -60.5t77 -21.5q73 0 117 49l67 -77q-75 -72 -184 -72q-106 0 -174 62.5t-68 161.5q0 91 63.5 155t155.5 64q104 0 166.5 -70t58.5 -191zM252 342q-38 0 -64.5 -24.5t-31.5 -60.5h189q-3 37 -27 61t-66 24zM259 488q-70 0 -110.5 37.5t-46.5 93.5
h99q0 -26 17 -41t41 -15q22 0 39 15t18 41h98q-5 -56 -45 -93.5t-110 -37.5z" />
    <glyph glyph-name="Edotaccent" unicode="&#x116;" horiz-adv-x="519" 
d="M487 0h-417v600h418v-115h-285v-128h270v-109h-270v-133h284v-115zM359 719q0 -35 -22 -56.5t-54 -21.5q-33 0 -55.5 21.5t-22.5 56.5q0 31 23 51.5t55 20.5t54 -20.5t22 -51.5z" />
    <glyph glyph-name="edotaccent" unicode="&#x117;" horiz-adv-x="496" 
d="M473 173h-318q8 -39 39 -60.5t77 -21.5q73 0 117 49l67 -77q-75 -72 -184 -72q-106 0 -174 62.5t-68 161.5q0 91 63.5 155t155.5 64q104 0 166.5 -70t58.5 -191zM252 342q-38 0 -64.5 -24.5t-31.5 -60.5h189q-3 37 -27 61t-66 24zM335 580q0 -35 -22 -56.5t-54 -21.5
q-34 0 -56 21.5t-22 56.5q0 31 22.5 52t55.5 21q32 0 54 -21t22 -52z" />
    <glyph glyph-name="Eogonek" unicode="&#x118;" horiz-adv-x="519" 
d="M550 -163h-71q-53 0 -85 25t-32 65q0 38 26 73h-318v600h418v-115h-285v-128h270v-109h-270v-133h284v-115h-14q-17 -23 -17 -46q0 -34 42 -34h52v-83z" />
    <glyph glyph-name="eogonek" unicode="&#x119;" horiz-adv-x="496" 
d="M433 -163h-71q-53 0 -85 25t-32 65q0 33 19 64q-105 2 -171.5 64t-66.5 160q0 91 63.5 155t155.5 64q104 0 166.5 -70t58.5 -191h-318q8 -39 39 -60.5t77 -21.5q73 0 117 49l67 -77q-40 -38 -90 -56q-23 -26 -23 -53q0 -34 42 -34h52v-83zM249 342q-38 0 -64.5 -24.5
t-31.5 -60.5h189q-3 37 -27 61t-66 24z" />
    <glyph glyph-name="Ecaron" unicode="&#x11a;" horiz-adv-x="521" 
d="M487 0h-417v600h418v-115h-285v-128h270v-109h-270v-133h284v-115zM357 642h-143l-95 128h116l50 -65l51 65h116z" />
    <glyph glyph-name="ecaron" unicode="&#x11b;" horiz-adv-x="496" 
d="M473 173h-318q8 -39 39 -60.5t77 -21.5q73 0 117 49l67 -77q-75 -72 -184 -72q-106 0 -174 62.5t-68 161.5q0 91 63.5 155t155.5 64q104 0 166.5 -70t58.5 -191zM252 342q-38 0 -64.5 -24.5t-31.5 -60.5h189q-3 37 -27 61t-66 24zM325 478h-135l-120 159h120l68 -86
l68 86h119z" />
    <glyph glyph-name="Gcircumflex" unicode="&#x11c;" horiz-adv-x="677" 
d="M368 109q84 0 130 34v81h-130v103h258v-261q-101 -79 -258 -79q-147 0 -245 88.5t-98 228.5q0 129 96 219t236 90q144 0 251 -99l-91 -89q-63 63 -158 63q-82 0 -137.5 -53t-55.5 -131q0 -87 58.5 -141t143.5 -54zM285 762h143l95 -128h-116l-51 64l-50 -64h-116z" />
    <glyph glyph-name="gcircumflex" unicode="&#x11d;" horiz-adv-x="540" 
d="M219 662h134l121 -159h-120l-68 85l-68 -85h-120zM33 221q0 97 75.5 155t184.5 58q107 0 201 -45v-377q0 -96 -65.5 -152t-174.5 -56q-50 0 -103 16t-90 41l41 96q66 -46 146 -46q56 0 87.5 27.5t31.5 74.5v15q-39 -26 -102 -26q-96 0 -164 57.5t-68 161.5zM286 109
q50 0 78 27v177q-36 17 -76 17q-52 0 -87.5 -31t-35.5 -78q0 -53 35.5 -82.5t85.5 -29.5z" />
    <glyph glyph-name="Gbreve" unicode="&#x11e;" horiz-adv-x="677" 
d="M369 109q84 0 130 34v81h-130v103h258v-261q-101 -79 -258 -79q-147 0 -245 88.5t-98 228.5q0 129 96 219t236 90q144 0 251 -99l-91 -89q-63 63 -158 63q-82 0 -137.5 -53t-55.5 -131q0 -87 58.5 -141t143.5 -54zM358 642q-70 0 -110.5 37.5t-46.5 93.5h99q0 -27 17 -42
t41 -15q22 0 39 15.5t18 41.5h98q-5 -56 -45 -93.5t-110 -37.5z" />
    <glyph glyph-name="gbreve" unicode="&#x11f;" horiz-adv-x="540" 
d="M33 221q0 97 75.5 155t184.5 58q107 0 201 -45v-377q0 -96 -65.5 -152t-174.5 -56q-50 0 -103 16t-90 41l41 96q66 -46 146 -46q56 0 87.5 27.5t31.5 74.5v15q-39 -26 -102 -26q-96 0 -164 57.5t-68 161.5zM286 109q50 0 78 27v177q-36 17 -76 17q-52 0 -87.5 -31
t-35.5 -78q0 -53 35.5 -82.5t85.5 -29.5zM287 488q-70 0 -110.5 37.5t-46.5 93.5h99q0 -26 17 -41t41 -15q22 0 39 15t18 41h98q-5 -56 -45 -93.5t-110 -37.5z" />
    <glyph glyph-name="Gdotaccent" unicode="&#x120;" horiz-adv-x="669" 
d="M366 109q84 0 130 34v81h-130v103h258v-261q-101 -79 -258 -79q-147 0 -245 88.5t-98 228.5q0 129 96 219t236 90q144 0 251 -99l-91 -89q-63 63 -158 63q-82 0 -137.5 -53t-55.5 -131q0 -87 58.5 -141t143.5 -54zM425 719q0 -35 -22 -56.5t-54 -21.5q-33 0 -55.5 21.5
t-22.5 56.5q0 31 23 51.5t55 20.5t54 -20.5t22 -51.5z" />
    <glyph glyph-name="gdotaccent" unicode="&#x121;" horiz-adv-x="540" 
d="M30 221q0 97 75.5 155t184.5 58q107 0 201 -45v-377q0 -96 -65.5 -152t-174.5 -56q-50 0 -103 16t-90 41l41 96q66 -46 146 -46q56 0 87.5 27.5t31.5 74.5v15q-39 -26 -102 -26q-96 0 -164 57.5t-68 161.5zM283 109q49 0 78 27v177q-36 17 -76 17q-52 0 -87.5 -31
t-35.5 -78q0 -53 35.5 -82.5t85.5 -29.5zM357 580q0 -35 -22 -56.5t-54 -21.5q-34 0 -56 21.5t-22 56.5q0 31 22.5 52t55.5 21q32 0 54 -21t22 -52z" />
    <glyph glyph-name="Gcommaaccent" unicode="&#x122;" horiz-adv-x="673" 
d="M367 109q84 0 130 34v81h-130v103h258v-261q-101 -79 -258 -79q-147 0 -245 88.5t-98 228.5q0 129 96 219t236 90q144 0 251 -99l-91 -89q-63 63 -158 63q-82 0 -137.5 -53t-55.5 -131q0 -87 58.5 -141t143.5 -54zM347 -190h-130q62 91 85 150h124q-28 -80 -79 -150z" />
    <glyph glyph-name="gcommaaccent" unicode="&#x123;" horiz-adv-x="540" 
d="M30 221q0 97 75.5 155t184.5 58q107 0 201 -45v-377q0 -96 -65.5 -152t-174.5 -56q-50 0 -103 16t-90 41l41 96q66 -46 146 -46q56 0 87.5 27.5t31.5 74.5v15q-39 -26 -102 -26q-96 0 -164 57.5t-68 161.5zM283 109q49 0 78 27v177q-36 17 -76 17q-52 0 -87.5 -31
t-35.5 -78q0 -53 35.5 -82.5t85.5 -29.5zM307 642h125q-52 -77 -81 -150h-123q25 76 79 150z" />
    <glyph glyph-name="Hcircumflex" unicode="&#x124;" horiz-adv-x="684" 
d="M623 0h-133v241h-286v-241h-134v600h134v-241h286v241h133v-600zM269 762h143l95 -128h-116l-51 64l-50 -64h-116z" />
    <glyph glyph-name="hcircumflex" unicode="&#x125;" horiz-adv-x="558" 
d="M507 0h-132v234q0 40 -22 60.5t-55 20.5q-58 0 -102 -50v-265h-131v647h131v-267q70 54 141 54q77 0 123.5 -43t46.5 -127v-264zM208 800h143l95 -128h-116l-51 64l-50 -64h-116z" />
    <glyph glyph-name="Hbar" unicode="&#x126;" horiz-adv-x="752" 
d="M27 443v99h86v58h134v-58h286v58h133v-58h61v-99h-61v-443h-133v241h-286v-241h-134v443h-86zM247 359h286v84h-286v-84z" />
    <glyph glyph-name="hbar" unicode="&#x127;" horiz-adv-x="611" 
d="M26 486v99h92v62h132v-62h88v-99h-88v-103q63 51 138 51q77 0 123 -43t46 -127v-264h-132v235q0 39 -21 60t-56 21q-58 0 -98 -47v-269h-135v425h3v61h-92z" />
    <glyph glyph-name="Itilde" unicode="&#x128;" horiz-adv-x="294" 
d="M216 0h-137v600h137v-600zM66 659h-90v7q0 55 28.5 85t73.5 30q28 0 70.5 -15t54.5 -15q28 0 28 30v5h85v-9q0 -113 -99 -113q-28 0 -70.5 15.5t-51.5 15.5q-29 0 -29 -36z" />
    <glyph glyph-name="itilde" unicode="&#x129;" horiz-adv-x="261" 
d="M202 0h-132v425h132v-425zM54 515h-91q0 59 28 91t75 32q28 0 70 -15.5t54 -15.5q29 0 29 35h84v-9q0 -112 -98 -112q-29 0 -71.5 15.5t-51.5 15.5q-28 0 -28 -37z" />
    <glyph glyph-name="Imacron" unicode="&#x12a;" horiz-adv-x="294" 
d="M216 0h-137v600h137v-600zM-5 677v101h312v-101h-312z" />
    <glyph glyph-name="imacron" unicode="&#x12b;" horiz-adv-x="258" 
d="M203 0h-132v425h132v-425zM-19 509v99h312v-99h-312z" />
    <glyph glyph-name="Ibreve" unicode="&#x12c;" horiz-adv-x="294" 
d="M216 0h-137v600h137v-600zM148 642q-70 0 -110.5 37.5t-46.5 93.5h99q0 -27 17 -42t41 -15q22 0 39 15.5t18 41.5h98q-5 -56 -45 -93.5t-110 -37.5z" />
    <glyph glyph-name="ibreve" unicode="&#x12d;" horiz-adv-x="259" 
d="M203 0h-132v425h132v-425zM140 488q-70 0 -110.5 37.5t-46.5 93.5h99q0 -26 17 -41t41 -15q22 0 39 15t18 41h98q-5 -56 -45 -93.5t-110 -37.5z" />
    <glyph glyph-name="Iogonek" unicode="&#x12e;" horiz-adv-x="294" 
d="M239 -163h-71q-53 0 -85 25t-32 65q0 41 28 76v597h137v-600h-54q-17 -23 -17 -46q0 -34 42 -34h52v-83z" />
    <glyph glyph-name="iogonek" unicode="&#x12f;" horiz-adv-x="257" 
d="M230 -163h-71q-53 0 -85 25t-32 65q0 42 29 77v421h132v-425h-50q-17 -23 -17 -46q0 -34 42 -34h52v-83zM216 580q0 -35 -22 -56.5t-54 -21.5q-34 0 -56 21.5t-22 56.5q0 31 22.5 52t55.5 21q32 0 54 -21t22 -52z" />
    <glyph glyph-name="Idotaccent" unicode="&#x130;" horiz-adv-x="262" 
d="M201 0h-137v600h137v-600zM210 719q0 -35 -22 -56.5t-54 -21.5q-33 0 -55.5 21.5t-22.5 56.5q0 31 23 51.5t55 20.5t54 -20.5t22 -51.5z" />
    <glyph glyph-name="dotlessi" unicode="&#x131;" horiz-adv-x="265" 
d="M203 0h-132v425h132v-425z" />
    <glyph glyph-name="IJ" unicode="&#x132;" horiz-adv-x="628" 
d="M201 0h-137v600h137v-600zM571 600v-421q0 -88 -51 -140t-141 -52q-35 0 -78 11.5t-71 29.5l44 105q40 -26 83 -26q22 0 37 7t23 17t12 29t5 34t1 40v366h136z" />
    <glyph glyph-name="ij" unicode="&#x133;" horiz-adv-x="493" 
d="M203 0h-132v425h132v-425zM214 580q0 -35 -22 -56.5t-54 -21.5q-34 0 -56 21.5t-22 56.5q0 31 22.5 52t55.5 21q32 0 54 -21t22 -52zM431 425v-451q0 -82 -49.5 -131.5t-128.5 -49.5q-72 0 -130 33l38 103q33 -20 67 -20q71 0 71 75v441h132zM444 580q0 -35 -22 -56.5
t-54 -21.5q-34 0 -56 21.5t-22 56.5q0 31 22.5 52t55.5 21q32 0 54 -21t22 -52z" />
    <glyph glyph-name="Jcircumflex" unicode="&#x134;" horiz-adv-x="427" 
d="M363 600v-421q0 -88 -51 -140t-141 -52q-35 0 -78 11.5t-71 29.5l44 105q40 -26 83 -26q22 0 37 7t23 17t12 29t5 34t1 40v366h136zM190 762h143l95 -128h-116l-51 64l-50 -64h-116z" />
    <glyph glyph-name="jcircumflex" unicode="&#x135;" horiz-adv-x="290" 
d="M222 440v-451q0 -82 -49.5 -131.5t-128.5 -49.5q-72 0 -130 33l38 103q33 -20 67 -20q71 0 71 75v441h132zM86 647h134l121 -159h-120l-68 85l-68 -85h-120z" />
    <glyph glyph-name="Kcommaaccent" unicode="&#x136;" horiz-adv-x="636" 
d="M205 600v-252l224 252h172l-253 -280l278 -320h-179l-242 286v-286h-135v600h135zM295 -190h-130q62 91 85 150h124q-28 -80 -79 -150z" />
    <glyph glyph-name="kcommaaccent" unicode="&#x137;" horiz-adv-x="538" 
d="M201 647v-364l147 142h167l-189 -182l203 -243h-165l-163 199v-199h-132v647h132zM265 -190h-130q62 91 85 150h124q-28 -80 -79 -150z" />
    <glyph glyph-name="kgreenlandic" unicode="&#x138;" horiz-adv-x="539" 
d="M195 425v-148l154 148h164l-179 -171l195 -254h-159l-128 163l-47 -46v-117h-131v425h131z" />
    <glyph glyph-name="Lacute" unicode="&#x139;" horiz-adv-x="485" 
d="M468 0h-398v600h133v-485h265v-115zM252 761h133v-6l-87 -106h-129z" />
    <glyph glyph-name="lacute" unicode="&#x13a;" horiz-adv-x="259" 
d="M198 0h-132v647h132v-647zM152 794h133v-6l-87 -106h-129z" />
    <glyph glyph-name="Lcommaaccent" unicode="&#x13b;" horiz-adv-x="485" 
d="M468 0h-398v600h133v-485h265v-115zM253 -190h-130q62 91 85 150h124q-28 -80 -79 -150z" />
    <glyph glyph-name="lcommaaccent" unicode="&#x13c;" horiz-adv-x="258" 
d="M198 0h-132v647h132v-647zM112 -190h-130q62 91 85 150h124q-28 -80 -79 -150z" />
    <glyph glyph-name="Lcaron" unicode="&#x13d;" horiz-adv-x="487" 
d="M468 0h-398v600h133v-485h265v-115zM361 466h-114q24 86 39 181h118q-18 -102 -43 -181z" />
    <glyph glyph-name="lcaron" unicode="&#x13e;" horiz-adv-x="303" 
d="M198 0h-132v647h132v-647zM340 466h-114q24 86 39 181h118q-18 -102 -43 -181z" />
    <glyph glyph-name="Ldot" unicode="&#x13f;" horiz-adv-x="487" 
d="M468 0h-398v600h133v-485h265v-115zM395 302q0 -35 -22 -56.5t-54 -21.5q-34 0 -56 21.5t-22 56.5q0 31 22.5 52t55.5 21q32 0 54 -21t22 -52z" />
    <glyph glyph-name="ldot" unicode="&#x140;" horiz-adv-x="406" 
d="M201 0h-137v600h137v-600zM385 302q0 -35 -22 -56.5t-54 -21.5q-34 0 -56 21.5t-22 56.5q0 31 22.5 52t55.5 21q32 0 54 -21t22 -52z" />
    <glyph glyph-name="Lslash" unicode="&#x141;" horiz-adv-x="521" 
d="M505 0h-398v246l-61 -29l-30 66l91 43v274h133v-212l46 22l29 -66l-75 -36v-193h265v-115z" />
    <glyph glyph-name="lslash" unicode="&#x142;" horiz-adv-x="359" 
d="M251 0h-132v280l-57 -27l-30 66l87 41v287h132v-225l51 24l29 -66l-80 -38v-342z" />
    <glyph glyph-name="Nacute" unicode="&#x143;" horiz-adv-x="715" 
d="M654 0h-127l-326 387v-387h-131v600h124l326 -387v387h134v-600zM358 761h133v-6l-87 -106h-129z" />
    <glyph glyph-name="nacute" unicode="&#x144;" horiz-adv-x="558" 
d="M505 0h-132v235q0 39 -21 60t-56 21q-28 0 -56 -14t-45 -36v-266h-132v425h124v-51q67 60 149 60q77 0 123 -43t46 -127v-264zM329 647h128v-5l-134 -157h-119z" />
    <glyph glyph-name="Ncommaaccent" unicode="&#x145;" horiz-adv-x="715" 
d="M654 0h-127l-326 387v-387h-131v600h124l326 -387v387h134v-600zM339 -190h-130q62 91 85 150h124q-28 -80 -79 -150z" />
    <glyph glyph-name="ncommaaccent" unicode="&#x146;" horiz-adv-x="558" 
d="M506 0h-132v235q0 39 -21 60t-56 21q-28 0 -56 -14t-45 -36v-266h-132v425h124v-51q67 60 149 60q77 0 123 -43t46 -127v-264zM269 -190h-130q62 91 85 150h124q-28 -80 -79 -150z" />
    <glyph glyph-name="Ncaron" unicode="&#x147;" horiz-adv-x="715" 
d="M654 0h-127l-326 387v-387h-131v600h124l326 -387v387h134v-600zM415 642h-143l-95 128h116l50 -65l51 65h116z" />
    <glyph glyph-name="ncaron" unicode="&#x148;" horiz-adv-x="558" 
d="M503 0h-132v235q0 39 -21 60t-56 21q-28 0 -56 -14t-45 -36v-266h-132v425h124v-51q67 60 149 60q77 0 123 -43t46 -127v-264zM349 478h-135l-120 159h120l68 -86l68 86h119z" />
    <glyph glyph-name="Eng" unicode="&#x14a;" horiz-adv-x="722" 
d="M522 -8v14l-321 381v-387h-131v600h124l326 -387v387h134v-619q0 -82 -49.5 -131t-128.5 -49q-76 0 -131 33l38 103q33 -20 69 -20q70 0 70 75z" />
    <glyph glyph-name="eng" unicode="&#x14b;" horiz-adv-x="554" 
d="M369 -8v243q0 39 -21 60t-56 21q-28 0 -56 -14t-45 -36v-266h-132v425h124v-51q67 60 149 60q77 0 123 -43t46 -127v-283q0 -82 -49.5 -131t-128.5 -49q-76 0 -131 33l38 103q33 -20 69 -20q70 0 70 75z" />
    <glyph glyph-name="Omacron" unicode="&#x14c;" horiz-adv-x="703" 
d="M28 302q0 130 95 220.5t228 90.5t228.5 -90.5t95.5 -220.5q0 -131 -95.5 -223t-228.5 -92t-228 92t-95 223zM162 302q0 -82 54.5 -137t134.5 -55q81 0 134 54.5t53 137.5q0 81 -53 134.5t-134 53.5q-80 0 -134.5 -54.5t-54.5 -133.5zM193 677v101h312v-101h-312z" />
    <glyph glyph-name="omacron" unicode="&#x14d;" horiz-adv-x="508" 
d="M110 509v99h312v-99h-312zM27 213q0 93 66.5 157t162.5 64t162.5 -64.5t66.5 -156.5t-66.5 -157t-162.5 -65t-162.5 65t-66.5 157zM160 214q0 -46 27 -74.5t69 -28.5t69 28.5t27 74.5q0 45 -27.5 74.5t-68.5 29.5t-68.5 -29.5t-27.5 -74.5z" />
    <glyph glyph-name="Obreve" unicode="&#x14e;" horiz-adv-x="703" 
d="M28 302q0 130 95 220.5t228 90.5t228.5 -90.5t95.5 -220.5q0 -131 -95.5 -223t-228.5 -92t-228 92t-95 223zM162 302q0 -82 54.5 -137t134.5 -55q81 0 134 54.5t53 137.5q0 81 -53 134.5t-134 53.5q-80 0 -134.5 -54.5t-54.5 -133.5zM351 642q-70 0 -110.5 37.5
t-46.5 93.5h99q0 -27 17 -42t41 -15q22 0 39 15.5t18 41.5h98q-5 -56 -45 -93.5t-110 -37.5z" />
    <glyph glyph-name="obreve" unicode="&#x14f;" horiz-adv-x="508" 
d="M27 213q0 93 66.5 157t162.5 64t162.5 -64.5t66.5 -156.5t-66.5 -157t-162.5 -65t-162.5 65t-66.5 157zM160 214q0 -46 27 -74.5t69 -28.5t69 28.5t27 74.5q0 45 -27.5 74.5t-68.5 29.5t-68.5 -29.5t-27.5 -74.5zM265 488q-70 0 -110.5 37.5t-46.5 93.5h99q0 -26 17 -41
t41 -15q22 0 39 15t18 41h98q-5 -56 -45 -93.5t-110 -37.5z" />
    <glyph glyph-name="Ohungarumlaut" unicode="&#x150;" horiz-adv-x="703" 
d="M28 302q0 130 95 220.5t228 90.5t228.5 -90.5t95.5 -220.5q0 -131 -95.5 -223t-228.5 -92t-228 92t-95 223zM162 302q0 -82 54.5 -137t134.5 -55q81 0 134 54.5t53 137.5q0 81 -53 134.5t-134 53.5q-80 0 -134.5 -54.5t-54.5 -133.5zM260 746h133v-6l-87 -106h-129z
M453 746h133v-6l-87 -106h-129z" />
    <glyph glyph-name="ohungarumlaut" unicode="&#x151;" horiz-adv-x="508" 
d="M25 213q0 93 66.5 157t162.5 64t162.5 -64.5t66.5 -156.5t-66.5 -157t-162.5 -65t-162.5 65t-66.5 157zM158 214q0 -46 27 -74.5t69 -28.5t69 28.5t27 74.5q0 45 -27.5 74.5t-68.5 29.5t-68.5 -29.5t-27.5 -74.5zM227 647h128v-5l-135 -157h-118zM422 647h128v-5
l-135 -157h-118z" />
    <glyph glyph-name="OE" unicode="&#x152;" horiz-adv-x="992" 
d="M962 0h-417v64q-87 -77 -200 -77q-133 0 -228 93t-95 224q0 129 95 219t228 90q117 0 200 -74v61h418v-115h-286v-128h271v-109h-271v-134h285v-114zM156 304q0 -83 54.5 -137.5t134.5 -54.5q81 0 134 54t53 138q0 80 -53.5 134t-133.5 54t-134.5 -54.5t-54.5 -133.5z
" />
    <glyph glyph-name="oe" unicode="&#x153;" horiz-adv-x="827" 
d="M803 175h-317q7 -41 39 -63t76 -22q73 0 121 50l63 -80q-75 -69 -185 -69q-117 0 -180 74q-63 -74 -165 -74q-96 0 -162.5 64.5t-66.5 156.5q0 93 66 157t163 64q99 0 164 -73q62 74 160 74q103 0 165.5 -68.5t58.5 -190.5zM351 212q0 45 -27.5 74t-68.5 29
q-42 0 -69.5 -29t-27.5 -74q0 -47 27.5 -75.5t69.5 -28.5t69 28.5t27 75.5zM583 342q-39 0 -65 -24t-31 -62h189q-3 39 -26.5 62.5t-66.5 23.5z" />
    <glyph glyph-name="Racute" unicode="&#x154;" horiz-adv-x="625" 
d="M563 413q0 -61 -37.5 -108.5t-102.5 -70.5l198 -234h-167l-173 215h-78v-215h-133v600h251q109 0 175.5 -50t66.5 -137zM320 491h-117v-169h117q44 0 72 24t28 61q0 38 -28 61t-72 23zM288 761h133v-6l-87 -106h-129z" />
    <glyph glyph-name="racute" unicode="&#x155;" horiz-adv-x="368" 
d="M186 0h-132v425h117v-60q19 31 53.5 50t71.5 19q32 0 59 -10v-119q-24 9 -58 9q-36 0 -67 -22.5t-44 -56.5v-235zM242 647h128v-5l-134 -157h-119z" />
    <glyph glyph-name="Rcommaaccent" unicode="&#x156;" horiz-adv-x="625" 
d="M563 413q0 -61 -37.5 -108.5t-102.5 -70.5l198 -234h-167l-173 215h-78v-215h-133v600h251q109 0 175.5 -50t66.5 -137zM320 491h-117v-169h117q44 0 72 24t28 61q0 38 -28 61t-72 23zM295 -190h-130q62 91 85 150h124q-28 -80 -79 -150z" />
    <glyph glyph-name="rcommaaccent" unicode="&#x157;" horiz-adv-x="368" 
d="M186 0h-132v425h117v-60q19 31 53.5 50t71.5 19q32 0 59 -10v-119q-24 9 -58 9q-36 0 -67 -22.5t-44 -56.5v-235zM193 -190h-130q62 91 85 150h124q-28 -80 -79 -150z" />
    <glyph glyph-name="Rcaron" unicode="&#x158;" horiz-adv-x="625" 
d="M563 413q0 -61 -37.5 -108.5t-102.5 -70.5l198 -234h-167l-173 215h-78v-215h-133v600h251q109 0 175.5 -50t66.5 -137zM320 491h-117v-169h117q44 0 72 24t28 61q0 38 -28 61t-72 23zM345 642h-143l-95 128h116l50 -65l51 65h116z" />
    <glyph glyph-name="rcaron" unicode="&#x159;" horiz-adv-x="368" 
d="M186 0h-132v425h117v-60q19 31 53.5 50t71.5 19q32 0 59 -10v-119q-24 9 -58 9q-36 0 -67 -22.5t-44 -56.5v-235zM274 478h-135l-120 159h120l68 -86l68 86h119z" />
    <glyph glyph-name="Sacute" unicode="&#x15a;" horiz-adv-x="544" 
d="M281 761h133v-6l-87 -106h-129zM305 220l-130 56q-132 57 -132 164q0 74 64.5 123.5t166.5 49.5q117 0 210 -71l-66 -92q-68 49 -139 49q-44 0 -68 -15.5t-24 -39.5q0 -22 14 -35t42 -25l128 -54q134 -57 134 -165q0 -76 -67 -127t-172 -51q-126 0 -230 83l65 102
q34 -29 79.5 -48.5t84.5 -19.5q43 0 67.5 15.5t24.5 41.5q0 37 -52 59z" />
    <glyph glyph-name="sacute" unicode="&#x15b;" horiz-adv-x="409" 
d="M216 155l-78 32q-104 43 -104 120q0 54 47 91t127 37q91 0 157 -49l-50 -76q-45 33 -99 33q-57 0 -57 -31q0 -20 38 -36l80 -35q104 -42 104 -120q0 -58 -49 -93.5t-128 -35.5q-99 0 -175 58l46 85q56 -46 122 -46q60 0 60 29q0 12 -9.5 20t-31.5 17zM269 647h128v-5
l-134 -157h-119z" />
    <glyph glyph-name="Scircumflex" unicode="&#x15c;" horiz-adv-x="544" 
d="M305 220l-130 56q-132 57 -132 164q0 74 64.5 123.5t166.5 49.5q117 0 210 -71l-66 -92q-68 49 -139 49q-44 0 -68 -15.5t-24 -39.5q0 -22 14 -35t42 -25l128 -54q134 -57 134 -165q0 -76 -67 -127t-172 -51q-126 0 -230 83l65 102q34 -29 79.5 -48.5t84.5 -19.5
q43 0 67.5 15.5t24.5 41.5q0 37 -52 59zM203 762h143l95 -128h-116l-51 64l-50 -64h-116z" />
    <glyph glyph-name="scircumflex" unicode="&#x15d;" horiz-adv-x="409" 
d="M141 662h134l121 -159h-120l-68 85l-68 -85h-120zM213 154l-78 32q-104 43 -104 120q0 54 47 91t127 37q91 0 157 -49l-50 -76q-45 33 -99 33q-57 0 -57 -31q0 -20 38 -36l80 -35q104 -42 104 -120q0 -58 -49 -93.5t-128 -35.5q-99 0 -175 58l46 85q56 -46 122 -46
q60 0 60 29q0 12 -9.5 20t-31.5 17z" />
    <glyph glyph-name="Scedilla" unicode="&#x15e;" horiz-adv-x="544" 
d="M305 220l-130 56q-132 57 -132 164q0 74 64.5 123.5t166.5 49.5q117 0 210 -71l-66 -92q-68 49 -139 49q-44 0 -68 -15.5t-24 -39.5q0 -22 14 -35t42 -25l128 -54q134 -57 134 -165q0 -76 -67 -127t-172 -51q-126 0 -230 83l65 102q34 -29 79.5 -48.5t84.5 -19.5
q43 0 67.5 15.5t24.5 41.5q0 37 -52 59zM350 -107q0 -35 -28.5 -57t-75.5 -22q-32 0 -54 5l-12 52q24 -6 53 -6q46 0 46 25q0 18 -35 18q-21 0 -34 -2l-9 50q27 6 59 6q39 0 64.5 -18.5t25.5 -50.5z" />
    <glyph glyph-name="scedilla" unicode="&#x15f;" horiz-adv-x="409" 
d="M216 154l-78 32q-104 43 -104 120q0 54 47 91t127 37q91 0 157 -49l-50 -76q-45 33 -99 33q-57 0 -57 -31q0 -20 38 -36l80 -35q104 -42 104 -120q0 -58 -49 -93.5t-128 -35.5q-99 0 -175 58l46 85q56 -46 122 -46q60 0 60 29q0 12 -9.5 20t-31.5 17zM286 -107
q0 -35 -28.5 -57t-75.5 -22q-32 0 -54 5l-12 52q24 -6 53 -6q46 0 46 25q0 18 -35 18q-21 0 -34 -2l-9 50q27 6 59 6q39 0 64.5 -18.5t25.5 -50.5z" />
    <glyph glyph-name="Scaron" unicode="&#x160;" horiz-adv-x="544" 
d="M305 220l-130 56q-132 57 -132 164q0 74 64.5 123.5t166.5 49.5q117 0 210 -71l-66 -92q-68 49 -139 49q-44 0 -68 -15.5t-24 -39.5q0 -22 14 -35t42 -25l128 -54q134 -57 134 -165q0 -76 -67 -127t-172 -51q-126 0 -230 83l65 102q34 -29 79.5 -48.5t84.5 -19.5
q43 0 67.5 15.5t24.5 41.5q0 37 -52 59zM344 642h-143l-95 128h116l50 -65l51 65h116z" />
    <glyph glyph-name="scaron" unicode="&#x161;" horiz-adv-x="409" 
d="M216 154l-78 32q-104 43 -104 120q0 54 47 91t127 37q91 0 157 -49l-50 -76q-45 33 -99 33q-57 0 -57 -31q0 -20 38 -36l80 -35q104 -42 104 -120q0 -58 -49 -93.5t-128 -35.5q-99 0 -175 58l46 85q56 -46 122 -46q60 0 60 29q0 12 -9.5 20t-31.5 17zM273 478h-135
l-120 159h120l68 -86l68 86h119z" />
    <glyph glyph-name="Tcommaaccent" unicode="&#x162;" horiz-adv-x="511" 
d="M324 0h-132v485h-171v115h474v-115h-171v-485zM239 -190h-130q62 91 85 150h124q-28 -80 -79 -150z" />
    <glyph glyph-name="tcommaaccent" unicode="&#x163;" horiz-adv-x="419" 
d="M38 322v103h73v129h132v-129h153v-103h-153v-132q0 -41 23 -62.5t60 -21.5q38 0 67 13v-112q-38 -16 -86 -16q-94 0 -145 48t-51 133v150h-73zM233 -190h-130q62 91 85 150h124q-28 -80 -79 -150z" />
    <glyph glyph-name="Tcaron" unicode="&#x164;" horiz-adv-x="511" 
d="M324 0h-132v485h-171v115h474v-115h-171v-485zM331 642h-143l-95 128h116l50 -65l51 65h116z" />
    <glyph glyph-name="tcaron" unicode="&#x165;" horiz-adv-x="421" 
d="M38 322v103h73v129h132v-129h153v-103h-153v-132q0 -41 23 -62.5t60 -21.5q38 0 67 13v-112q-38 -16 -86 -16q-94 0 -145 48t-51 133v150h-73zM397 466h-114q24 86 39 181h118q-18 -102 -43 -181z" />
    <glyph glyph-name="Tbar" unicode="&#x166;" horiz-adv-x="511" 
d="M93 240v99h99v146h-171v115h474v-115h-171v-146h81v-99h-81v-240h-132v240h-99z" />
    <glyph glyph-name="tbar" unicode="&#x167;" horiz-adv-x="400" 
d="M33 169v99h64v54h-73v103h73v129h132v-129h153v-103h-153v-54h116v-99h-114q12 -63 81 -63q38 0 67 13v-112q-38 -16 -86 -16q-94 0 -144.5 47t-51.5 131h-64z" />
    <glyph glyph-name="Utilde" unicode="&#x168;" horiz-adv-x="667" 
d="M468 254v346h131v-345q0 -129 -72.5 -198.5t-192.5 -69.5q-116 0 -193 69t-77 199v345h133v-346q0 -72 39 -108t98 -36q61 0 97.5 35.5t36.5 108.5zM260 659h-90v7q0 55 28.5 85t73.5 30q28 0 70.5 -15t54.5 -15q28 0 28 30v5h85v-9q0 -113 -99 -113q-28 0 -70.5 15.5
t-51.5 15.5q-29 0 -29 -36z" />
    <glyph glyph-name="utilde" unicode="&#x169;" horiz-adv-x="546" 
d="M53 425h132v-235q0 -39 21 -60t56 -21q28 0 56 14t45 36v266h132v-425h-124v51q-67 -60 -149 -60q-77 0 -123 43t-46 127v264zM191 515h-91q0 59 28 91t75 32q28 0 70 -15.5t54 -15.5q29 0 29 35h84v-9q0 -112 -98 -112q-29 0 -71.5 15.5t-51.5 15.5q-28 0 -28 -37z" />
    <glyph glyph-name="Umacron" unicode="&#x16a;" horiz-adv-x="669" 
d="M468 254v346h131v-345q0 -129 -72.5 -198.5t-192.5 -69.5q-116 0 -193 69t-77 199v345h133v-346q0 -72 39 -108t98 -36q61 0 97.5 35.5t36.5 108.5zM184 677v101h312v-101h-312z" />
    <glyph glyph-name="umacron" unicode="&#x16b;" horiz-adv-x="558" 
d="M130 509v99h312v-99h-312zM66 425h132v-235q0 -39 21 -60t56 -21q28 0 56 14t45 36v266h132v-425h-124v51q-67 -60 -149 -60q-77 0 -123 43t-46 127v264z" />
    <glyph glyph-name="Ubreve" unicode="&#x16c;" horiz-adv-x="669" 
d="M468 254v346h131v-345q0 -129 -72.5 -198.5t-192.5 -69.5q-116 0 -193 69t-77 199v345h133v-346q0 -72 39 -108t98 -36q61 0 97.5 35.5t36.5 108.5zM341 642q-70 0 -110.5 37.5t-46.5 93.5h99q0 -27 17 -42t41 -15q22 0 39 15.5t18 41.5h98q-5 -56 -45 -93.5t-110 -37.5z
" />
    <glyph glyph-name="ubreve" unicode="&#x16d;" horiz-adv-x="558" 
d="M283 488q-70 0 -110.5 37.5t-46.5 93.5h99q0 -26 17 -41t41 -15q22 0 39 15t18 41h98q-5 -56 -45 -93.5t-110 -37.5zM63 425h132v-235q0 -39 21 -60t56 -21q28 0 56 14t45 36v266h132v-425h-124v51q-67 -60 -149 -60q-77 0 -123 43t-46 127v264z" />
    <glyph glyph-name="Uring" unicode="&#x16e;" horiz-adv-x="667" 
d="M468 254v346h131v-345q0 -129 -72.5 -198.5t-192.5 -69.5q-116 0 -193 69t-77 199v345h133v-346q0 -72 39 -108t98 -36q61 0 97.5 35.5t36.5 108.5zM443 725q0 -45 -28.5 -72.5t-71.5 -27.5q-44 0 -73 27.5t-29 72.5q0 41 29.5 68t72.5 27q42 0 71 -27t29 -68zM375 723
q0 13 -9.5 22t-22.5 9q-14 0 -23.5 -9t-9.5 -22q0 -15 9.5 -23.5t23.5 -8.5t23 8.5t9 23.5z" />
    <glyph glyph-name="uring" unicode="&#x16f;" horiz-adv-x="558" 
d="M59 425h132v-235q0 -39 21 -60t56 -21q28 0 56 14t45 36v266h132v-425h-124v51q-67 -60 -149 -60q-77 0 -123 43t-46 127v264zM383 573q0 -45 -28.5 -72t-71.5 -27q-44 0 -73 27t-29 72q0 41 29.5 68t72.5 27q42 0 71 -27t29 -68zM315 571q0 13 -9 22t-23 9t-23.5 -9
t-9.5 -22q0 -15 9.5 -23.5t23.5 -8.5t23 8.5t9 23.5z" />
    <glyph glyph-name="Uhungarumlaut" unicode="&#x170;" horiz-adv-x="663" 
d="M468 254v346h131v-345q0 -129 -72.5 -198.5t-192.5 -69.5q-116 0 -193 69t-77 199v345h133v-346q0 -72 39 -108t98 -36q61 0 97.5 35.5t36.5 108.5zM243 746h133v-6l-87 -106h-129zM436 746h133v-6l-87 -106h-129z" />
    <glyph glyph-name="uhungarumlaut" unicode="&#x171;" horiz-adv-x="563" 
d="M63 425h132v-235q0 -39 21 -60t56 -21q28 0 56 14t45 36v266h132v-425h-124v51q-67 -60 -149 -60q-77 0 -123 43t-46 127v264zM238 647h128v-5l-135 -157h-118zM433 647h128v-5l-135 -157h-118z" />
    <glyph glyph-name="Uogonek" unicode="&#x172;" horiz-adv-x="660" 
d="M465 -163h-71q-53 0 -85 25t-32 65q0 34 18 62q-102 11 -166.5 79.5t-64.5 186.5v345h133v-346q0 -72 39 -108t98 -36q61 0 97.5 35.5t36.5 108.5v346h131v-345q0 -116 -58.5 -184t-159.5 -81q-10 -17 -10 -36q0 -34 42 -34h52v-83z" />
    <glyph glyph-name="uogonek" unicode="&#x173;" horiz-adv-x="562" 
d="M61 425h132v-235q0 -39 21 -60t56 -21q28 0 56 14t45 36v266h132v-425h-43q-17 -23 -17 -46q0 -34 42 -34h52v-83h-71q-53 0 -85 25t-32 65q0 41 30 78v46q-67 -60 -149 -60q-77 0 -123 43t-46 127v264z" />
    <glyph glyph-name="Wcircumflex" unicode="&#x174;" horiz-adv-x="949" 
d="M757 0h-142l-141 413l-147 -413h-142l-173 600h133l120 -426l147 426h133l147 -426l121 426h125zM403 762h143l95 -128h-116l-51 64l-50 -64h-116z" />
    <glyph glyph-name="wcircumflex" unicode="&#x175;" horiz-adv-x="752" 
d="M314 662h134l121 -159h-120l-68 85l-68 -85h-120zM600 0h-129l-95 266l-95 -266h-135l-136 425h136l77 -277l92 277h124l91 -277l81 277h130z" />
    <glyph glyph-name="Ycircumflex" unicode="&#x176;" horiz-adv-x="633" 
d="M385 0h-136v224l-237 376h151l157 -260l160 260h143l-238 -376v-224zM244 762h143l95 -128h-116l-51 64l-50 -64h-116z" />
    <glyph glyph-name="ycircumflex" unicode="&#x177;" horiz-adv-x="544" 
d="M204 662h134l121 -159h-120l-68 85l-68 -85h-120zM159 425l115 -243l118 243h140q-53 -106 -329 -647h-141l141 270l-191 377h147z" />
    <glyph glyph-name="Ydieresis" unicode="&#x178;" horiz-adv-x="632" 
d="M385 0h-136v224l-237 376h151l157 -260l160 260h143l-238 -376v-224zM292 700q0 -31 -19 -49.5t-48 -18.5t-48.5 18.5t-19.5 49.5q0 27 19.5 45t48.5 18t48 -18t19 -45zM487 700q0 -31 -19.5 -49.5t-48.5 -18.5t-48.5 18.5t-19.5 49.5q0 27 19.5 45t48.5 18t48.5 -18
t19.5 -45z" />
    <glyph glyph-name="Zacute" unicode="&#x179;" horiz-adv-x="569" 
d="M515 0h-467v93l298 390h-289v117h460v-101l-292 -383h290v-116zM302 761h133v-6l-87 -106h-129z" />
    <glyph glyph-name="zacute" unicode="&#x17a;" horiz-adv-x="451" 
d="M407 0h-372v78l204 246h-194v101h359v-88l-200 -235h203v-102zM291 647h128v-5l-134 -157h-119z" />
    <glyph glyph-name="Zdotaccent" unicode="&#x17b;" horiz-adv-x="564" 
d="M515 0h-467v93l298 390h-289v117h460v-101l-292 -383h290v-116zM369 719q0 -35 -22 -56.5t-54 -21.5q-33 0 -55.5 21.5t-22.5 56.5q0 31 23 51.5t55 20.5t54 -20.5t22 -51.5z" />
    <glyph glyph-name="zdotaccent" unicode="&#x17c;" horiz-adv-x="451" 
d="M407 0h-372v78l204 246h-194v101h359v-88l-200 -235h203v-102zM309 580q0 -35 -22 -56.5t-54 -21.5q-34 0 -56 21.5t-22 56.5q0 31 22.5 52t55.5 21q32 0 54 -21t22 -52z" />
    <glyph glyph-name="Zcaron" unicode="&#x17d;" horiz-adv-x="569" 
d="M515 0h-467v93l298 390h-289v117h460v-101l-292 -383h290v-116zM359 642h-143l-95 128h116l50 -65l51 65h116z" />
    <glyph glyph-name="zcaron" unicode="&#x17e;" horiz-adv-x="451" 
d="M418 0h-372v78l204 246h-194v101h359v-88l-200 -235h203v-102zM324 478h-135l-120 159h120l68 -86l68 86h119z" />
    <glyph glyph-name="florin" unicode="&#x192;" horiz-adv-x="520" 
d="M67 325l13 101h84l4 32q11 90 72 144.5t155 54.5q56 0 94 -20l-10 -97q-34 15 -83 15q-42 0 -71 -27t-35 -71l-4 -31h139l-13 -101h-139l-38 -307q-10 -79 -63 -124.5t-139 -45.5q-61 0 -99 19l14 109q35 -17 79 -17q36 0 61.5 22.5t29.5 61.5l34 282h-85z" />
    <glyph glyph-name="Icaron" unicode="&#x1cf;" horiz-adv-x="347" 
d="M201 0h-137v600h137v-600zM338 466h-114q24 86 39 181h118q-18 -102 -43 -181z" />
    <glyph glyph-name="Aringacute" unicode="&#x1fa;" horiz-adv-x="775" 
d="M491 641q0 -35 -20 -63l298 -578h-154l-69 143h-321l-69 -143h-143l295 580q-19 25 -19 61q0 41 29.5 68t72.5 27q42 0 71 -27t29 -68zM387 475l-111 -227h220zM454 924h128v-5l-134 -157h-119zM423 639q0 13 -9 22t-23 9t-23.5 -9t-9.5 -22q0 -15 9.5 -23.5t23.5 -8.5
t23 8.5t9 23.5z" />
    <glyph glyph-name="aringacute" unicode="&#x1fb;" horiz-adv-x="500" 
d="M357 501q0 -50 -35 -78q66 -18 99 -62t33 -105v-256h-117v32q-53 -41 -127 -41q-80 0 -129 38t-49 99t56.5 99.5t152.5 38.5q27 0 91 -8v7q0 35 -27 56t-84 21q-80 0 -145 -34v95q50 23 106 28q-27 27 -27 70q0 41 29.5 68t72.5 27q42 0 71 -27t29 -68zM297 771h128v-5
l-134 -157h-119zM332 119v66q-32 6 -76 6q-43 0 -69 -16.5t-26 -42.5t20.5 -41t53.5 -15q67 0 97 43zM289 499q0 13 -9 22t-23 9t-23.5 -9t-9.5 -22q0 -15 9.5 -23.5t23.5 -8.5t23 8.5t9 23.5z" />
    <glyph glyph-name="AEacute" unicode="&#x1fc;" horiz-adv-x="916" 
d="M884 0h-418v142l-216 1l-95 -143h-142l409 600h463v-115h-286v-128h271v-109h-271v-133h285v-115zM318 248h148v223zM657 761h133v-6l-87 -106h-129z" />
    <glyph glyph-name="aeacute" unicode="&#x1fd;" horiz-adv-x="807" 
d="M230 434q117 0 173 -62q60 62 152 62q104 0 166.5 -70t57.5 -189h-316q7 -41 37 -62.5t77 -21.5q75 0 120 50l64 -80q-76 -70 -186 -70q-120 0 -187 81q-62 -81 -176 -81q-80 0 -129.5 38t-49.5 100q0 61 56.5 99.5t153.5 38.5q33 0 91 -7v7q0 34 -27.5 54.5t-84.5 20.5
q-77 0 -145 -33v94q67 31 153 31zM334 143v43q-38 7 -79 7q-47 0 -71 -16.5t-24 -44.5q0 -25 20.5 -40t54.5 -15q41 0 67 19.5t32 46.5zM559 342q-39 0 -64.5 -24t-30.5 -62h188q-4 39 -27.5 62.5t-65.5 23.5zM470 647h128v-5l-134 -157h-119z" />
    <glyph glyph-name="Oslashacute" unicode="&#x1fe;" horiz-adv-x="696" 
d="M61 -88l85 146q-55 44 -86.5 107.5t-31.5 136.5q0 130 95 220.5t228 90.5q53 0 109 -18l59 101h136l-92 -159q112 -94 112 -235q0 -131 -95.5 -223t-228.5 -92q-50 0 -97 14l-52 -89h-141zM162 302q0 -77 50 -132l184 315q-25 5 -45 5q-80 0 -134.5 -54.5t-54.5 -133.5z
M538 302q0 70 -41 120l-179 -310q10 -2 33 -2q81 0 134 54.5t53 137.5zM371 746h133v-6l-87 -106h-129z" />
    <glyph glyph-name="oslashacute" unicode="&#x1ff;" horiz-adv-x="512" 
d="M27 213q0 93 66.5 157t162.5 64q49 0 91 -18l53 90h70l-70 -120q85 -67 85 -173q0 -92 -66.5 -157t-162.5 -65q-40 0 -79 13l-54 -92h-72l71 120q-44 31 -69.5 78.5t-25.5 102.5zM324 647h128v-5l-134 -157h-119zM160 214q0 -44 26 -73l101 172q-17 5 -31 5
q-41 0 -68.5 -29.5t-27.5 -74.5zM352 214q0 32 -17 61l-95 -163q5 -1 16 -1q42 0 69 28.5t27 74.5z" />
    <glyph glyph-name="Scommaaccent" unicode="&#x218;" horiz-adv-x="544" 
d="M305 220l-130 56q-132 57 -132 164q0 74 64.5 123.5t166.5 49.5q117 0 210 -71l-66 -92q-68 49 -139 49q-44 0 -68 -15.5t-24 -39.5q0 -22 14 -35t42 -25l128 -54q134 -57 134 -165q0 -76 -67 -127t-172 -51q-126 0 -230 83l65 102q34 -29 79.5 -48.5t84.5 -19.5
q43 0 67.5 15.5t24.5 41.5q0 37 -52 59zM249 -190h-130q62 91 85 150h124q-28 -80 -79 -150z" />
    <glyph glyph-name="scommaaccent" unicode="&#x219;" horiz-adv-x="409" 
d="M216 154l-78 32q-104 43 -104 120q0 54 47 91t127 37q91 0 157 -49l-50 -76q-45 33 -99 33q-57 0 -57 -31q0 -20 38 -36l80 -35q104 -42 104 -120q0 -58 -49 -93.5t-128 -35.5q-99 0 -175 58l46 85q56 -46 122 -46q60 0 60 29q0 12 -9.5 20t-31.5 17zM183 -190h-130
q62 91 85 150h124q-28 -80 -79 -150z" />
    <glyph glyph-name="dotlessj" unicode="&#x237;" horiz-adv-x="285" 
d="M225 425v-451q0 -82 -49.5 -131.5t-128.5 -49.5q-72 0 -130 33l38 103q33 -20 67 -20q71 0 71 75v441h132z" />
    <glyph glyph-name="schwa" unicode="&#x259;" horiz-adv-x="511" 
d="M35 250h318q-8 39 -39 60.5t-77 21.5q-73 0 -117 -49l-67 77q75 72 184 72q106 0 174 -62.5t68 -161.5q0 -91 -63.5 -155t-155.5 -64q-104 0 -166.5 70t-58.5 191zM256 81q38 0 64.5 24.5t31.5 60.5h-189q3 -37 27 -61t66 -24z" />
    <glyph glyph-name="circumflex" unicode="&#x2c6;" 
d="M308 647h134l121 -159h-120l-68 85l-68 -85h-120z" />
    <glyph glyph-name="caron" unicode="&#x2c7;" 
d="M442 478h-135l-120 159h120l68 -86l68 86h119z" />
    <glyph glyph-name="breve" unicode="&#x2d8;" 
d="M375 488q-70 0 -110.5 37.5t-46.5 93.5h99q0 -26 17 -41t41 -15q22 0 39 15t18 41h98q-5 -56 -45 -93.5t-110 -37.5z" />
    <glyph glyph-name="dotaccent" unicode="&#x2d9;" 
d="M451 580q0 -35 -22 -56.5t-54 -21.5q-34 0 -56 21.5t-22 56.5q0 31 22.5 52t55.5 21q32 0 54 -21t22 -52z" />
    <glyph glyph-name="ring" unicode="&#x2da;" 
d="M475 573q0 -45 -28.5 -72t-71.5 -27q-44 0 -73 27t-29 72q0 41 29.5 68t72.5 27q42 0 71 -27t29 -68zM407 571q0 13 -9 22t-23 9t-23.5 -9t-9.5 -22q0 -15 9.5 -23.5t23.5 -8.5t23 8.5t9 23.5z" />
    <glyph glyph-name="ogonek" unicode="&#x2db;" 
d="M479 -163h-71q-53 0 -85 25t-32 65q0 42 33 82h86q-25 -28 -25 -55q0 -34 42 -34h52v-83z" />
    <glyph glyph-name="tilde" unicode="&#x2dc;" 
d="M292 515h-91q0 59 28 91t75 32q28 0 70 -15.5t54 -15.5q29 0 29 35h84v-9q0 -112 -98 -112q-29 0 -71.5 15.5t-51.5 15.5q-28 0 -28 -37z" />
    <glyph glyph-name="hungarumlaut" unicode="&#x2dd;" 
d="M284 647h128v-5l-135 -157h-118zM479 647h128v-5l-135 -157h-118z" />
    <glyph glyph-name="uni0326" unicode="&#x326;" 
d="M371 -190h-130q62 91 85 150h124q-28 -80 -79 -150z" />
    <glyph glyph-name="Delta" unicode="&#x394;" 
d="M721 0h-694l347 647h10zM377 424l-158 -309h314z" />
    <glyph glyph-name="Delta" unicode="&#x2206;" 
d="M721 0h-694l347 647h10zM377 424l-158 -309h314z" />
    <glyph glyph-name="Omega" unicode="&#x3a9;" horiz-adv-x="924" 
d="M854 115v-115h-353v121q73 13 122.5 67t49.5 134q0 82 -59.5 136t-147.5 54q-91 0 -150 -53.5t-59 -136.5q0 -79 49.5 -133t114.5 -68v-121h-350v115h159q-47 34 -77 89.5t-30 117.5q0 138 96 221t245 83q147 0 243.5 -83.5t96.5 -220.5q0 -63 -30 -117.5t-76 -89.5h156z
" />
    <glyph glyph-name="Omega" unicode="&#x2126;" horiz-adv-x="924" 
d="M854 115v-115h-353v121q73 13 122.5 67t49.5 134q0 82 -59.5 136t-147.5 54q-91 0 -150 -53.5t-59 -136.5q0 -79 49.5 -133t114.5 -68v-121h-350v115h159q-47 34 -77 89.5t-30 117.5q0 138 96 221t245 83q147 0 243.5 -83.5t96.5 -220.5q0 -63 -30 -117.5t-76 -89.5h156z
" />
    <glyph glyph-name="pi" unicode="&#x3c0;" horiz-adv-x="667" 
d="M268 0h-132v310h-86v115h564v-115h-87v-310h-132v310h-127v-310z" />
    <glyph glyph-name="uni0E3F" unicode="&#xe3f;" horiz-adv-x="655" 
d="M391 -114h-124v114h-167v600h167v90h124v-91q87 -5 138 -46t51 -107q0 -75 -78 -130q96 -48 96 -146q0 -77 -58.5 -123t-148.5 -47v-114zM374 262h-141v-157h134q40 0 66 23t26 58q0 34 -23 55t-62 21zM364 495h-131v-133h137q31 0 51 20t20 47q0 29 -21 47.5t-56 18.5z
" />
    <glyph glyph-name="Wgrave" unicode="&#x1e80;" horiz-adv-x="950" 
d="M757 0h-142l-141 413l-147 -413h-142l-173 600h133l120 -426l147 426h133l147 -426l121 426h125zM327 761h131l74 -112h-121l-84 106v6z" />
    <glyph glyph-name="wgrave" unicode="&#x1e81;" horiz-adv-x="753" 
d="M186 662h128l125 -162h-119l-134 157v5zM600 0h-129l-95 266l-95 -266h-135l-136 425h136l77 -277l92 277h124l91 -277l81 277h130z" />
    <glyph glyph-name="Wacute" unicode="&#x1e82;" horiz-adv-x="949" 
d="M757 0h-142l-141 413l-147 -413h-142l-173 600h133l120 -426l147 426h133l147 -426l121 426h125zM492 761h133v-6l-87 -106h-129z" />
    <glyph glyph-name="wacute" unicode="&#x1e83;" horiz-adv-x="752" 
d="M600 0h-129l-95 266l-95 -266h-135l-136 425h136l77 -277l92 277h124l91 -277l81 277h130zM439 647h128v-5l-134 -157h-119z" />
    <glyph glyph-name="Wdieresis" unicode="&#x1e84;" horiz-adv-x="948" 
d="M757 0h-142l-141 413l-147 -413h-142l-173 600h133l120 -426l147 426h133l147 -426l121 426h125zM445 700q0 -31 -19 -49.5t-48 -18.5t-48.5 18.5t-19.5 49.5q0 27 19.5 45t48.5 18t48 -18t19 -45zM640 700q0 -31 -19.5 -49.5t-48.5 -18.5t-48.5 18.5t-19.5 49.5
q0 27 19.5 45t48.5 18t48.5 -18t19.5 -45z" />
    <glyph glyph-name="wdieresis" unicode="&#x1e85;" horiz-adv-x="751" 
d="M347 567q0 -32 -19 -50.5t-48 -18.5t-48.5 19t-19.5 50q0 27 19.5 45t48.5 18t48 -18t19 -45zM542 567q0 -31 -19.5 -50t-48.5 -19t-48.5 19t-19.5 50q0 27 19.5 45t48.5 18t48.5 -18t19.5 -45zM600 0h-129l-95 266l-95 -266h-135l-136 425h136l77 -277l92 277h124
l91 -277l81 277h130z" />
    <glyph glyph-name="Ygrave" unicode="&#x1ef2;" horiz-adv-x="635" 
d="M385 0h-136v224l-237 376h151l157 -260l160 260h143l-238 -376v-224zM173 761h131l74 -112h-121l-84 106v6z" />
    <glyph glyph-name="ygrave" unicode="&#x1ef3;" horiz-adv-x="539" 
d="M80 662h128l125 -162h-119l-134 157v5zM155 425l115 -243l118 243h140q-53 -106 -329 -647h-141l141 270l-191 377h147z" />
    <glyph glyph-name="enspace" unicode="&#x2002;" horiz-adv-x="494" 
 />
    <glyph glyph-name="emspace" unicode="&#x2003;" horiz-adv-x="994" 
 />
    <glyph glyph-name="threeperemspace" unicode="&#x2004;" horiz-adv-x="327" 
 />
    <glyph glyph-name="fourperemspace" unicode="&#x2005;" horiz-adv-x="244" 
 />
    <glyph glyph-name="thinspace" unicode="&#x2009;" horiz-adv-x="124" 
 />
    <glyph glyph-name="hairspace" unicode="&#x200a;" horiz-adv-x="69" 
 />
    <glyph glyph-name="endash" unicode="&#x2013;" horiz-adv-x="518" 
d="M488 191h-449v117h449v-117z" />
    <glyph glyph-name="emdash" unicode="&#x2014;" horiz-adv-x="875" 
d="M827 191h-772v117h772v-117z" />
    <glyph glyph-name="quoteleft" unicode="&#x2018;" horiz-adv-x="250" 
d="M129 647l104 -268h-125l-106 268h127z" />
    <glyph glyph-name="quoteright" unicode="&#x2019;" horiz-adv-x="263" 
d="M30 379l104 268h127l-106 -268h-125z" />
    <glyph glyph-name="quotesinglbase" unicode="&#x201a;" horiz-adv-x="234" 
d="M3 -161l104 268h127l-106 -268h-125z" />
    <glyph glyph-name="quotedblleft" unicode="&#x201c;" horiz-adv-x="465" 
d="M131 647l104 -268h-125l-106 268h127zM318 647l104 -268h-125l-106 268h127z" />
    <glyph glyph-name="quotedblright" unicode="&#x201d;" horiz-adv-x="480" 
d="M59 379l104 268h127l-106 -268h-125zM246 379l104 268h127l-106 -268h-125z" />
    <glyph glyph-name="quotedblbase" unicode="&#x201e;" horiz-adv-x="429" 
d="M8 -161l104 268h127l-106 -268h-125zM195 -161l104 268h127l-106 -268h-125z" />
    <glyph glyph-name="dagger" unicode="&#x2020;" horiz-adv-x="485" 
d="M46 363v104h129v180h137v-180h129v-104h-129v-363h-137v363h-129z" />
    <glyph glyph-name="daggerdbl" unicode="&#x2021;" horiz-adv-x="485" 
d="M46 363v104h129v180h137v-180h129v-104h-129v-88h129v-104h-129v-171h-137v171h-129v104h129v88h-129z" />
    <glyph glyph-name="bullet" unicode="&#x2022;" horiz-adv-x="480" 
d="M414 261q0 -67 -49.5 -115t-117.5 -48q-69 0 -118.5 48t-49.5 115t50 114.5t118 47.5t117.5 -47.5t49.5 -114.5z" />
    <glyph glyph-name="ellipsis" unicode="&#x2026;" horiz-adv-x="763" 
d="M232 65q0 -35 -22 -56.5t-54 -21.5q-34 0 -56 21.5t-22 56.5q0 31 22.5 52t55.5 21q32 0 54 -21t22 -52zM461 65q0 -35 -22 -56.5t-54 -21.5q-34 0 -56 21.5t-22 56.5q0 31 22.5 52t55.5 21q32 0 54 -21t22 -52zM690 65q0 -35 -22 -56.5t-54 -21.5q-34 0 -56 21.5
t-22 56.5q0 31 22.5 52t55.5 21q32 0 54 -21t22 -52z" />
    <glyph glyph-name="perthousand" unicode="&#x2030;" horiz-adv-x="1138" 
d="M74 0l518 636h152l-516 -636h-154zM370 511q0 -57 -41.5 -97.5t-100.5 -40.5t-101.5 40.5t-42.5 97.5t42 96.5t102 39.5q59 0 100.5 -39.5t41.5 -96.5zM279 511q0 21 -15 36.5t-37 15.5t-37.5 -15.5t-15.5 -36.5q0 -23 15.5 -38.5t37.5 -15.5t37 15.5t15 38.5zM725 129
q0 -57 -41.5 -97.5t-100.5 -40.5t-101.5 40.5t-42.5 97.5t42 96.5t102 39.5q59 0 100.5 -39.5t41.5 -96.5zM634 129q0 21 -15 36.5t-37 15.5t-37.5 -15.5t-15.5 -36.5q0 -23 15.5 -38.5t37.5 -15.5t37 15.5t15 38.5zM1065 129q0 -57 -41.5 -97.5t-100.5 -40.5t-101.5 40.5
t-42.5 97.5t42 96.5t102 39.5q59 0 100.5 -39.5t41.5 -96.5zM974 129q0 21 -15 36.5t-37 15.5t-37.5 -15.5t-15.5 -36.5q0 -23 15.5 -38.5t37.5 -15.5t37 15.5t15 38.5z" />
    <glyph glyph-name="guilsinglleft" unicode="&#x2039;" horiz-adv-x="339" 
d="M179 420h132l-121 -201l121 -198h-132l-124 198z" />
    <glyph glyph-name="guilsinglright" unicode="&#x203a;" horiz-adv-x="324" 
d="M35 420h132l124 -201l-124 -198h-132l121 198z" />
    <glyph glyph-name="fraction" unicode="&#x2044;" horiz-adv-x="688" 
d="M53 -88l458 784h136l-453 -784h-141z" />
    <glyph glyph-name="uni20A9" unicode="&#x20a9;" horiz-adv-x="1113" 
d="M80 220h121l-14 48h-107v77h85l-73 255h133l72 -255h107l88 255h133l88 -255h107l73 255h125l-77 -255h92v-77h-115l-15 -48h130v-77h-153l-43 -143h-142l-49 143h-188l-51 -143h-142l-42 143h-143v77zM502 268l-17 -48h135l-17 48h-101zM739 268l17 -48h29l13 48h-59z
M318 268l14 -48h29l16 48h-59zM554 413l-24 -68h47z" />
    <glyph glyph-name="dong" unicode="&#x20ab;" horiz-adv-x="644" 
d="M281 490v99h117v58h133v-58h63v-99h-63v-490h-110v40q-51 -49 -131 -49q-92 0 -158.5 61.5t-66.5 162.5q0 94 68.5 156.5t164.5 62.5q53 0 100 -20v76h-117zM311 101q58 0 87 37v166q-37 21 -83 21q-47 0 -80.5 -30t-33.5 -79q0 -55 32 -85t78 -30zM109 -166v101h443
v-101h-443z" />
    <glyph glyph-name="Euro" unicode="&#x20ac;" horiz-adv-x="684" 
d="M558 337h-285q-2 -10 -2 -31q0 -24 2 -35h285v-73h-259q24 -48 71.5 -72t102.5 -24q84 0 144 40v-120q-62 -35 -154 -35q-107 0 -194 57.5t-120 153.5h-94v73h78q-2 22 -2 34t2 32h-78v73h95q35 91 121 147t192 56q82 0 154 -34v-115q-66 37 -144 37q-54 0 -102.5 -24
t-71.5 -67h259v-73z" />
    <glyph glyph-name="uni20B9" unicode="&#x20b9;" horiz-adv-x="625" 
d="M80 517l51 83h434l-52 -83h-110q16 -22 25 -49h133l-52 -82h-78q-10 -53 -46 -90t-93 -55l204 -241h-159l-212 250v71h66q85 0 104 65h-215l51 82h159q-28 49 -97 49h-113z" />
    <glyph glyph-name="afii61289" unicode="&#x2113;" horiz-adv-x="585" 
d="M250 529v-222q103 113 103 225q0 28 -15.5 43.5t-36.5 15.5q-22 0 -36.5 -16t-14.5 -46zM466 166l67 -61q-94 -118 -210 -118q-67 0 -109 34t-52 99l-28.5 -19t-38.5 -25l-49 77q80 52 107 73v295q0 76 41 120.5t108 44.5q70 0 107 -44t37 -122q0 -167 -196 -341v-20
q0 -39 21 -59.5t57 -20.5q70 0 138 87z" />
    <glyph glyph-name="afii61352" unicode="&#x2116;" horiz-adv-x="1075" 
d="M1029 231h-299v99h299v-99zM1021 511q0 -57 -41.5 -97.5t-100.5 -40.5t-101.5 40.5t-42.5 97.5t42 96.5t102 39.5q59 0 100.5 -39.5t41.5 -96.5zM930 511q0 21 -15 36.5t-37 15.5t-37.5 -15.5t-15.5 -36.5q0 -23 15.5 -38.5t37.5 -15.5t37 15.5t15 38.5zM654 0h-127
l-326 387v-387h-131v600h124l326 -387v387h134v-600z" />
    <glyph glyph-name="published" unicode="&#x2117;" horiz-adv-x="785" 
d="M411 232h-40v-92h-84v326h124q60 0 97.5 -31.5t37.5 -84.5q0 -52 -38.5 -85t-96.5 -33zM409 395h-38v-92h38q25 0 40 13t15 35q0 20 -15 32t-40 12zM397 616q138 0 233 -91t95 -221q0 -131 -95 -222.5t-233 -91.5q-140 0 -237 91.5t-97 222.5q0 130 97 221t237 91z
M396 531q-104 0 -174 -65t-70 -165q0 -97 70 -162t174 -65q101 0 170 65t69 165q0 97 -68.5 162t-170.5 65z" />
    <glyph glyph-name="trademark" unicode="&#x2122;" horiz-adv-x="806" 
d="M395 647h72l91 -117l94 117h68v-291h-70v186l-94 -118h-1l-90 118v-186h-70v291zM349 647v-60h-105v-231h-70v231h-104v60h279z" />
    <glyph glyph-name="estimated" unicode="&#x212e;" horiz-adv-x="813" 
d="M744 299h-550v-171q36 -39 94.5 -64t117.5 -25q167 0 252 128l42 -23q-50 -78 -120 -117t-174 -39q-142 0 -242 95.5t-100 234.5q0 141 99 235.5t243 94.5q146 0 242 -97.5t96 -251.5zM615 347v167q-33 37 -89 61t-120 24q-62 0 -120 -24t-92 -61v-167h421z" />
    <glyph glyph-name="arrowleft" unicode="&#x2190;" horiz-adv-x="894" 
d="M601 -35h-158l-343 324l339 330h162l-285 -276h498v-109h-495z" />
    <glyph glyph-name="arrowup" unicode="&#x2191;" horiz-adv-x="894" 
d="M440 658q220 -224 329 -337v-145l-273 284v-519h-111v519l-271 -284v146z" />
    <glyph glyph-name="arrowright" unicode="&#x2192;" horiz-adv-x="894" 
d="M302 619h158l343 -324l-339 -330h-162l285 276h-498v109h495z" />
    <glyph glyph-name="arrowdown" unicode="&#x2193;" horiz-adv-x="894" 
d="M452 -72q-220 224 -329 337v145l273 -284v519h111v-519l271 284v-146z" />
    <glyph glyph-name="partialdiff" unicode="&#x2202;" horiz-adv-x="554" 
d="M41 196q0 90 58 146.5t154 56.5q84 0 132 -51q-3 76 -42 116.5t-103 40.5q-60 0 -111 -32l-53 92q70 48 172 48q120 0 191.5 -82t71.5 -251q0 -80 -20.5 -139t-55 -91.5t-75 -47.5t-86.5 -15q-103 0 -168 59t-65 150zM270 295q-46 0 -74 -26.5t-28 -71.5q0 -43 29 -71
t73 -28q43 0 72.5 28t29.5 72t-29 70.5t-73 26.5z" />
    <glyph glyph-name="product" unicode="&#x220f;" horiz-adv-x="691" 
d="M619 0h-133v485h-275v-485h-132v600h540v-600z" />
    <glyph glyph-name="summation" unicode="&#x2211;" horiz-adv-x="611" 
d="M552 0h-466v77l173 229l-170 276v18h463v-115h-253l109 -178l-149 -192h293v-115z" />
    <glyph glyph-name="minus" unicode="&#x2212;" horiz-adv-x="580" 
d="M86 170v117h420v-117h-420z" />
    <glyph glyph-name="radical" unicode="&#x221a;" horiz-adv-x="649" 
d="M36 320v105h198l91 -282l182 493h138q-166 -424 -250 -636h-139l-126 320h-94z" />
    <glyph glyph-name="infinity" unicode="&#x221e;" horiz-adv-x="940" 
d="M678 25q-107 0 -205 116q-92 -117 -200 -117q-81 0 -146.5 54t-65.5 145q0 92 65.5 147t146.5 55q59 0 103.5 -27t96.5 -87q90 114 205 114q86 0 144 -54t58 -147q0 -89 -59 -144t-143 -55zM279 131q60 0 131 91q-43 54 -71.5 76.5t-59.5 22.5q-38 0 -69.5 -26.5
t-31.5 -70.5t31 -68.5t70 -24.5zM669 321q-63 0 -132 -95q81 -96 133 -96q38 0 67 26t29 69q0 44 -29 70t-68 26z" />
    <glyph glyph-name="integral" unicode="&#x222b;" horiz-adv-x="410" 
d="M146 492q0 71 41.5 113t125.5 42h70v-97h-42q-78 0 -78 -82v-499q0 -71 -41.5 -113t-125.5 -42h-71v97h42q79 0 79 82v499z" />
    <glyph glyph-name="approxequal" unicode="&#x2248;" horiz-adv-x="638" 
d="M459 425h108q-1 -92 -34.5 -130t-99.5 -38q-42 0 -105 28.5t-83 28.5q-21 0 -36 -17t-15 -43h-112q0 80 41.5 123t102.5 43q38 0 102 -28t89 -28q42 0 42 61zM459 200h108q-1 -92 -34.5 -130t-99.5 -38q-42 0 -105 28.5t-83 28.5q-21 0 -36 -17t-15 -43h-112
q0 80 41.5 123t102.5 43q38 0 102 -28t89 -28q42 0 42 61z" />
    <glyph glyph-name="notequal" unicode="&#x2260;" horiz-adv-x="638" 
d="M110 276v108h256l38 62h109l-37 -62h54v-108h-115l-65 -106h180v-107h-242l-44 -76h-111l45 76h-68v107h129l66 106h-195z" />
    <glyph glyph-name="lessequal" unicode="&#x2264;" horiz-adv-x="517" 
d="M66 0v83h396v-83h-396zM462 480v-103l-242 -81l242 -79v-105l-396 134v101z" />
    <glyph glyph-name="greaterequal" unicode="&#x2265;" horiz-adv-x="499" 
d="M454 83v-83h-396v83h396zM58 377v103l396 -133v-101l-396 -134v105l242 79z" />
    <glyph glyph-name="lozenge" unicode="&#x25ca;" horiz-adv-x="707" 
d="M357 -13l-309 331l312 331l308 -331zM359 473l-149 -158l148 -155l148 157z" />
    <glyph glyph-name="uni5143" unicode="&#x5143;" horiz-adv-x="726" 
d="M106 452h465v-103h-79v-154q0 -50 23.5 -75.5t56.5 -25.5q43 0 72 18l22 -99q-44 -26 -105 -26q-86 0 -137.5 56t-51.5 150v156h-48l-9 -108q-16 -196 -235 -254v126q109 39 118 141l8 95h-100v103zM571 497h-465v103h465v-103z" />
    <glyph glyph-name="exclamdown.cap" horiz-adv-x="275" 
d="M217 535q0 -31 -22 -52t-54 -21q-33 0 -55.5 21t-22.5 52q0 35 22 56.5t56 21.5q32 0 54 -21.5t22 -56.5zM81 407h119l7 -407h-133z" />
    <glyph glyph-name="questiondown.cap" horiz-adv-x="486" 
d="M196 421h120v-31q0 -37 -12 -64.5t-42 -56.5q-8 -7 -30 -27t-31 -29t-18.5 -24.5t-9.5 -29.5q0 -62 83 -62q33 0 67.5 19.5t61.5 48.5l72 -83q-39 -41 -93.5 -68t-112.5 -27q-94 0 -151.5 45.5t-57.5 115.5q0 24 7.5 45t27.5 44.5t31 34.5t40 38q48 43 48 79v32zM178 535
q0 35 22 56.5t55 21.5t55 -21.5t22 -56.5q0 -31 -22.5 -52t-54.5 -21t-54.5 21t-22.5 52z" />
    <glyph glyph-name="emdash.cap" horiz-adv-x="847" 
d="M809 191h-770v117h770v-117z" />
    <glyph glyph-name="grave.cap" 
d="M268 746h131l74 -112h-121l-84 106v6z" />
    <glyph glyph-name="acute.cap" 
d="M364 746h133v-6l-87 -106h-129z" />
    <glyph glyph-name="circumflex.cap" 
d="M303 762h143l95 -128h-116l-51 64l-50 -64h-116z" />
    <glyph glyph-name="caron.cap" 
d="M446 642h-143l-95 128h116l50 -65l51 65h116z" />
    <glyph glyph-name="tilde.cap" 
d="M292 659h-90v7q0 55 28.5 85t73.5 30q28 0 70.5 -15t54.5 -15q28 0 28 30v5h85v-9q0 -113 -99 -113q-28 0 -70.5 15.5t-51.5 15.5q-29 0 -29 -36z" />
    <glyph glyph-name="dieresis.cap" 
d="M345 700q0 -31 -19 -49.5t-48 -18.5t-48.5 18.5t-19.5 49.5q0 27 19.5 45t48.5 18t48 -18t19 -45zM540 700q0 -31 -19.5 -49.5t-48.5 -18.5t-48.5 18.5t-19.5 49.5q0 27 19.5 45t48.5 18t48.5 -18t19.5 -45z" />
    <glyph glyph-name="macron.cap" 
d="M220 677v101h312v-101h-312z" />
    <glyph glyph-name="breve.cap" 
d="M375 642q-70 0 -110.5 37.5t-46.5 93.5h99q0 -27 17 -42t41 -15q22 0 39 15.5t18 41.5h98q-5 -56 -45 -93.5t-110 -37.5z" />
    <glyph glyph-name="dotaccent.cap" 
d="M451 719q0 -35 -22 -56.5t-54 -21.5q-33 0 -55.5 21.5t-22.5 56.5q0 31 23 51.5t55 20.5t54 -20.5t22 -51.5z" />
    <glyph glyph-name="ring.cap" 
d="M475 725q0 -45 -28.5 -72.5t-71.5 -27.5q-44 0 -73 27.5t-29 72.5q0 41 29.5 68t72.5 27q42 0 71 -27t29 -68zM407 723q0 13 -9.5 22t-22.5 9q-14 0 -23.5 -9t-9.5 -22q0 -15 9.5 -23.5t23.5 -8.5t23 8.5t9 23.5z" />
    <glyph glyph-name="caronSlovak" 
d="M403 466h-114q24 86 39 181h118q-18 -102 -43 -181z" />
    <glyph glyph-name="commaaccent.alt" 
d="M359 642h125q-52 -77 -81 -150h-123q25 76 79 150z" />
    <glyph glyph-name="hungarumlaut.cap" 
d="M258 746h133v-6l-87 -106h-129zM451 746h133v-6l-87 -106h-129z" />
    <glyph glyph-name="trianglesolidright" horiz-adv-x="894" 
d="M801 320l-650 -341v677z" />
    <glyph glyph-name="trianglesoliddown" horiz-adv-x="894" 
d="M458 -14l-341 650h677z" />
    <glyph glyph-name="trianglesolidleft" horiz-adv-x="894" 
d="M110 318l650 341v-677z" />
    <glyph glyph-name="trianglesolidup" horiz-adv-x="894" 
d="M437 651l341 -650h-677z" />
    <glyph glyph-name="triangleopenright" horiz-adv-x="894" 
d="M151 -33v678l652 -337zM560 311l-278 136v-282z" />
    <glyph glyph-name="triangleopendown" horiz-adv-x="894" 
d="M120 600h678l-337 -652zM460 193l139 289h-287z" />
    <glyph glyph-name="triangleopenleft" horiz-adv-x="894" 
d="M754 666v-678l-652 337zM345 322l278 -136v282z" />
    <glyph glyph-name="triangleopenup" horiz-adv-x="894" 
d="M787 5h-678l337 652zM447 412l-139 -289h287z" />
    <glyph glyph-name="emboxsolid" horiz-adv-x="903" 
d="M139 0v606h609v-606h-609z" />
    <glyph glyph-name="emboxopen" horiz-adv-x="894" 
d="M139 0v606h609v-606h-609zM272 487v-368h344v368h-344z" />
    <glyph glyph-name="embulletsolid" horiz-adv-x="894" 
d="M789 281q0 -138 -99.5 -234.5t-239.5 -96.5q-139 0 -239.5 97t-100.5 234q0 136 100 232.5t240 96.5t239.5 -96.5t99.5 -232.5z" />
    <glyph glyph-name="embulletopen" horiz-adv-x="894" 
d="M790 282q0 -141 -99.5 -236.5t-240.5 -95.5q-140 0 -240.5 95.5t-100.5 236.5q0 138 100.5 233t240.5 95t240 -95t100 -233zM450 73q86 0 145.5 59.5t59.5 148.5q0 88 -59.5 147.5t-145.5 59.5t-146.5 -59.5t-60.5 -147.5t60.5 -148t146.5 -60z" />
    <glyph glyph-name="lozangesolid" horiz-adv-x="903" 
d="M66 282l384 383l386 -386l-383 -384z" />
    <glyph glyph-name="lozangeopen" horiz-adv-x="894" 
d="M66 282l384 383l386 -386l-383 -384zM450 481l-203 -200l205 -204l200 202z" />
    <glyph glyph-name="starsolid" horiz-adv-x="894" 
d="M607 219l83 -260l-225 159l-225 -159l84 260l-224 163h280l85 263l86 -263h280z" />
    <glyph glyph-name="southeastarrow" horiz-adv-x="894" 
d="M705 0h-474l-111 103h401l-364 362l80 79l359 -360v386l109 -104v-466z" />
    <glyph glyph-name="southwestarrow" horiz-adv-x="894" 
d="M629 0h-474v466l109 104v-386l359 360l80 -79l-364 -362h401z" />
    <glyph glyph-name="northwestarrow" horiz-adv-x="894" 
d="M172 517h474l111 -103h-401l364 -362l-80 -79l-359 360v-386l-109 104v466z" />
    <glyph glyph-name="northeastarrow" horiz-adv-x="894" 
d="M262 517h474v-466l-109 -104v386l-359 -360l-80 79l364 362h-401z" />
    </font>
</defs>
</svg>
